<svg width="214" height="212" viewBox="0 0 214 212" fill="none" xmlns="http://www.w3.org/2000/svg">
<ellipse cx="89.1694" cy="85.7395" rx="81.5316" ry="41.9305" transform="rotate(-41.9601 89.1694 85.7395)" fill="#D9D9D9" fill-opacity="0.01"/>
<path d="M149.425 31.5607C156.977 39.9597 157.271 53.6166 151.396 69.0628C145.532 84.4816 133.566 101.536 116.87 116.548C100.175 131.559 81.949 141.652 65.9958 145.85C50.0143 150.056 36.4653 148.317 28.9135 139.918C21.3616 131.519 21.0677 117.862 26.9425 102.416C32.8069 86.9974 44.7732 69.9427 61.4684 54.9313C78.1636 39.9199 96.3898 29.8272 112.343 25.6289C128.325 21.4231 141.874 23.1618 149.425 31.5607Z" stroke="#04DA8D" stroke-opacity="0.45"/>
<ellipse cx="98.0696" cy="95.638" rx="81.5316" ry="41.9305" transform="rotate(-41.9601 98.0696 95.638)" fill="#D9D9D9" fill-opacity="0.01"/>
<path d="M158.326 41.4592C165.877 49.8581 166.171 63.515 160.297 78.9612C154.432 94.3801 142.466 111.435 125.771 126.446C109.075 141.458 90.8492 151.55 74.896 155.749C58.9144 159.954 45.3654 158.216 37.8136 149.817C30.2618 141.418 29.9678 127.761 35.8426 112.315C41.707 96.8959 53.6734 79.8412 70.3686 64.8298C87.0638 49.8184 105.29 39.7257 121.243 35.5273C137.225 31.3215 150.774 33.0603 158.326 41.4592Z" stroke="#04DA8D" stroke-opacity="0.45"/>
<ellipse cx="106.97" cy="105.536" rx="81.5316" ry="41.9305" transform="rotate(-41.9601 106.97 105.536)" fill="#D9D9D9" fill-opacity="0.01"/>
<path d="M167.226 51.3575C174.778 59.7564 175.071 73.4134 169.197 88.8596C163.332 104.278 151.366 121.333 134.671 136.344C117.976 151.356 99.7493 161.449 83.7961 165.647C67.8146 169.853 54.2656 168.114 46.7138 159.715C39.1619 151.316 38.868 137.659 44.7428 122.213C50.6072 106.794 62.5735 89.7395 79.2687 74.7281C95.9639 59.7167 114.19 49.624 130.143 45.4257C146.125 41.2199 159.674 42.9586 167.226 51.3575Z" stroke="#04DA8D" stroke-opacity="0.45"/>
<ellipse cx="115.87" cy="115.435" rx="81.5316" ry="41.9305" transform="rotate(-41.9601 115.87 115.435)" fill="#D9D9D9" fill-opacity="0.01"/>
<path d="M176.126 61.2559C183.677 69.6549 183.971 83.3118 178.097 98.758C172.232 114.177 160.266 131.232 143.571 146.243C126.875 161.254 108.649 171.347 92.696 175.545C76.7145 179.751 63.1655 178.012 55.6137 169.614C48.0618 161.215 47.7679 147.558 53.6427 132.111C59.5071 116.693 71.4734 99.6379 88.1686 84.6265C104.864 69.6151 123.09 59.5224 139.043 55.3241C155.025 51.1183 168.574 52.857 176.126 61.2559Z" stroke="#04DA8D" stroke-opacity="0.45"/>
<ellipse cx="124.77" cy="125.333" rx="81.5316" ry="41.9305" transform="rotate(-41.9601 124.77 125.333)" fill="#D9D9D9" fill-opacity="0.01"/>
<path d="M185.026 71.1544C192.578 79.5533 192.871 93.2102 186.997 108.656C181.132 124.075 169.166 141.13 152.471 156.141C135.776 171.153 117.549 181.245 101.596 185.444C85.6146 189.65 72.0656 187.911 64.5138 179.512C56.962 171.113 56.668 157.456 62.5428 142.01C68.4072 126.591 80.3736 109.536 97.0688 94.525C113.764 79.5136 131.99 69.4209 147.943 65.2225C163.925 61.0167 177.474 62.7555 185.026 71.1544Z" stroke="#04DA8D" stroke-opacity="0.45"/>
</svg>
