<svg width="60" height="60" viewBox="0 0 60 60" fill="none" xmlns="http://www.w3.org/2000/svg">
<path d="M17.25 27.4138C17.7678 27.4138 18.1875 26.994 18.1875 26.4763C18.1875 25.9585 17.7678 25.5388 17.25 25.5388C16.7322 25.5388 16.3125 25.9585 16.3125 26.4763C16.3125 26.994 16.7322 27.4138 17.25 27.4138Z" fill="black"/>
<path d="M11.5698 28.9512C14.0648 31.4925 14.0948 31.5012 16.7011 28.9875" stroke="black" stroke-linecap="round"/>
<path d="M16.25 18.5975C21.2563 5.4725 48.915 7.3775 50.5625 27.1437" stroke="black" stroke-linecap="round" stroke-linejoin="round"/>
<path d="M44.7036 39.2938C42.0265 40.8543 39.077 41.8915 36.0124 42.35C36.6011 43.695 37.1686 47.32 36.4561 48.9575C35.8699 50.3088 28.4461 49.845 28.1449 48.5963C27.7474 46.9538 27.7099 46.5175 28.1949 42.9375C25.0379 42.703 21.943 41.9386 19.0399 40.6763C19.3361 42.3368 19.2902 44.0403 18.9049 45.6825C18.6024 46.6888 12.4774 46.2788 12.5449 45.0688C12.6347 42.8057 13.1199 40.5758 13.9786 38.48C11.6603 37.3798 9.60139 35.8009 7.93736 33.8475C7.17456 33.0614 6.57694 32.1304 6.17977 31.1096C5.78259 30.0887 5.59391 28.9987 5.62486 27.9038C5.71866 25.3839 6.80809 23.0041 8.65418 21.2864C10.5003 19.5688 12.9523 18.6534 15.4724 18.7413C20.9099 18.7413 24.8149 22.0163 25.2849 27.0538M49.8411 35.0938C51.7252 32.987 53.2562 30.5894 54.3749 27.9938C51.0249 29.2025 50.8911 28.0538 50.5624 27.1438C50.5861 33.7938 33.5986 38.7475 26.7111 34.4438C24.3124 32.535 25.6336 30.6713 25.2836 27.0538" stroke="black" stroke-linecap="round" stroke-linejoin="round"/>
<path d="M49.8415 35.095C49.7602 35.1763 50.864 40.7375 49.8777 41.5275C48.5452 42.595 46.2027 43.4675 44.9627 43.045C43.9477 42.7 44.6877 39.2763 44.6877 39.2763M21.0565 13.105L23.1877 16.75M23.1877 16.75L30.4452 19.5275L41.189 18.79L43.5752 14.72M23.1877 16.75L19.9902 19.5913M30.444 19.5275L30.569 35.74M41.1877 18.7913L47.5877 31.2438" stroke="black" stroke-linecap="round" stroke-linejoin="round"/>
<path d="M10.959 27.4138C11.4768 27.4138 11.8965 26.994 11.8965 26.4763C11.8965 25.9585 11.4768 25.5388 10.959 25.5388C10.4412 25.5388 10.0215 25.9585 10.0215 26.4763C10.0215 26.994 10.4412 27.4138 10.959 27.4138Z" fill="black"/>
</svg>
