<svg width="40" height="40" viewBox="0 0 40 40" fill="none" xmlns="http://www.w3.org/2000/svg">
<path fill-rule="evenodd" clip-rule="evenodd" d="M20 36.6666C29.205 36.6666 36.6666 29.2049 36.6666 19.9999C36.6666 10.7949 29.205 3.33325 20 3.33325C10.795 3.33325 3.33331 10.7949 3.33331 19.9999C3.33331 29.2049 10.795 36.6666 20 36.6666ZM20.7833 14.1166C21.0177 13.8825 21.3354 13.751 21.6666 13.751C21.9979 13.751 22.3156 13.8825 22.55 14.1166L27.55 19.1166C27.7841 19.351 27.9155 19.6687 27.9155 19.9999C27.9155 20.3312 27.7841 20.6489 27.55 20.8833L22.55 25.8833C22.4355 26.0061 22.2975 26.1046 22.1442 26.1729C21.9909 26.2412 21.8254 26.2779 21.6575 26.2809C21.4897 26.2839 21.323 26.253 21.1673 26.1901C21.0117 26.1273 20.8703 26.0337 20.7516 25.915C20.6329 25.7963 20.5393 25.6549 20.4764 25.4992C20.4136 25.3436 20.3827 25.1769 20.3857 25.009C20.3886 24.8412 20.4254 24.6757 20.4937 24.5224C20.562 24.369 20.6605 24.231 20.7833 24.1166L23.65 21.2499H13.3333C13.0018 21.2499 12.6838 21.1182 12.4494 20.8838C12.215 20.6494 12.0833 20.3314 12.0833 19.9999C12.0833 19.6684 12.215 19.3505 12.4494 19.116C12.6838 18.8816 13.0018 18.7499 13.3333 18.7499H23.65L20.7833 15.8833C20.5492 15.6489 20.4177 15.3312 20.4177 14.9999C20.4177 14.6687 20.5492 14.351 20.7833 14.1166Z" fill="#C8D8E4"/>
</svg>
