<svg width="45" height="45" viewBox="0 0 45 45" fill="none" xmlns="http://www.w3.org/2000/svg">
<path fill-rule="evenodd" clip-rule="evenodd" d="M22.5 41.25C32.8556 41.25 41.25 32.8556 41.25 22.5C41.25 12.1444 32.8556 3.75 22.5 3.75C12.1444 3.75 3.75 12.1444 3.75 22.5C3.75 32.8556 12.1444 41.25 22.5 41.25ZM23.3812 15.8812C23.6449 15.6179 24.0023 15.47 24.375 15.47C24.7477 15.47 25.1051 15.6179 25.3687 15.8812L30.9937 21.5062C31.2571 21.7699 31.405 22.1273 31.405 22.5C31.405 22.8727 31.2571 23.2301 30.9937 23.4937L25.3687 29.1187C25.24 29.2569 25.0848 29.3677 24.9123 29.4446C24.7398 29.5214 24.5535 29.5628 24.3647 29.5661C24.1759 29.5694 23.9884 29.5347 23.8132 29.464C23.6381 29.3932 23.4791 29.288 23.3456 29.1544C23.212 29.0209 23.1067 28.8618 23.036 28.6867C22.9653 28.5116 22.9306 28.3241 22.9339 28.1353C22.9372 27.9464 22.9785 27.7602 23.0554 27.5877C23.1323 27.4152 23.2431 27.26 23.3812 27.1312L26.6062 23.9062H15C14.627 23.9062 14.2694 23.7581 14.0056 23.4944C13.7419 23.2306 13.5937 22.873 13.5937 22.5C13.5937 22.127 13.7419 21.7694 14.0056 21.5056C14.2694 21.2419 14.627 21.0937 15 21.0937H26.6062L23.3812 17.8687C23.1179 17.6051 22.97 17.2477 22.97 16.875C22.97 16.5023 23.1179 16.1449 23.3812 15.8812Z" fill="white"/>
</svg>
