<svg width="40" height="40" viewBox="0 0 40 40" fill="none" xmlns="http://www.w3.org/2000/svg">
<path fill-rule="evenodd" clip-rule="evenodd" d="M20 36.6666C10.795 36.6666 3.33335 29.2049 3.33335 19.9999C3.33335 10.7949 10.795 3.33325 20 3.33325C29.205 3.33325 36.6667 10.7949 36.6667 19.9999C36.6667 29.2049 29.205 36.6666 20 36.6666ZM19.2167 14.1166C18.9823 13.8825 18.6646 13.751 18.3334 13.751C18.0021 13.751 17.6844 13.8825 17.45 14.1166L12.45 19.1166C12.2159 19.351 12.0845 19.6687 12.0845 19.9999C12.0845 20.3312 12.2159 20.6489 12.45 20.8833L17.45 25.8833C17.5645 26.0061 17.7025 26.1046 17.8558 26.1729C18.0091 26.2412 18.1746 26.2779 18.3425 26.2809C18.5103 26.2839 18.677 26.253 18.8327 26.1901C18.9883 26.1273 19.1297 26.0337 19.2484 25.915C19.3671 25.7963 19.4607 25.6549 19.5236 25.4992C19.5864 25.3436 19.6173 25.1769 19.6143 25.009C19.6114 24.8412 19.5746 24.6757 19.5063 24.5224C19.438 24.369 19.3395 24.231 19.2167 24.1166L16.35 21.2499H26.6667C26.9982 21.2499 27.3162 21.1182 27.5506 20.8838C27.785 20.6494 27.9167 20.3314 27.9167 19.9999C27.9167 19.6684 27.785 19.3505 27.5506 19.116C27.3162 18.8816 26.9982 18.7499 26.6667 18.7499H16.35L19.2167 15.8833C19.4508 15.6489 19.5823 15.3312 19.5823 14.9999C19.5823 14.6687 19.4508 14.351 19.2167 14.1166Z" fill="#C8D8E4"/>
</svg>
