<svg width="45" height="45" viewBox="0 0 45 45" fill="none" xmlns="http://www.w3.org/2000/svg">
<path fill-rule="evenodd" clip-rule="evenodd" d="M22.5 41.25C12.1444 41.25 3.75001 32.8556 3.75001 22.5C3.75001 12.1444 12.1444 3.75 22.5 3.75C32.8556 3.75 41.25 12.1444 41.25 22.5C41.25 32.8556 32.8556 41.25 22.5 41.25ZM21.6188 15.8812C21.3551 15.6179 20.9977 15.47 20.625 15.47C20.2523 15.47 19.8949 15.6179 19.6313 15.8812L14.0063 21.5062C13.7429 21.7699 13.595 22.1273 13.595 22.5C13.595 22.8727 13.7429 23.2301 14.0063 23.4937L19.6313 29.1187C19.76 29.2569 19.9152 29.3677 20.0877 29.4446C20.2602 29.5214 20.4465 29.5628 20.6353 29.5661C20.8241 29.5694 21.0116 29.5347 21.1868 29.464C21.3619 29.3932 21.5209 29.288 21.6544 29.1544C21.788 29.0209 21.8933 28.8618 21.964 28.6867C22.0347 28.5116 22.0694 28.3241 22.0661 28.1353C22.0628 27.9464 22.0215 27.7602 21.9446 27.5877C21.8677 27.4152 21.7569 27.26 21.6188 27.1312L18.3938 23.9062H30C30.373 23.9062 30.7306 23.7581 30.9944 23.4944C31.2581 23.2306 31.4063 22.873 31.4063 22.5C31.4063 22.127 31.2581 21.7694 30.9944 21.5056C30.7306 21.2419 30.373 21.0937 30 21.0937H18.3938L21.6188 17.8687C21.8821 17.6051 22.03 17.2477 22.03 16.875C22.03 16.5023 21.8821 16.1449 21.6188 15.8812Z" fill="white"/>
</svg>
