<svg width="25" height="25" viewBox="0 0 25 25" fill="none" xmlns="http://www.w3.org/2000/svg">
<path fill-rule="evenodd" clip-rule="evenodd" d="M23.4379 12.5C23.4379 12.2928 23.3556 12.0941 23.2091 11.9476C23.0626 11.8011 22.8639 11.7188 22.6567 11.7188H4.23011L9.14729 6.80314C9.21993 6.7305 9.27755 6.64427 9.31686 6.54936C9.35617 6.45445 9.37641 6.35274 9.37641 6.25001C9.37641 6.14729 9.35617 6.04557 9.31686 5.95066C9.27755 5.85576 9.21993 5.76952 9.14729 5.69689C9.07466 5.62425 8.98842 5.56663 8.89352 5.52732C8.79861 5.48801 8.69689 5.46777 8.59417 5.46777C8.49145 5.46777 8.38973 5.48801 8.29482 5.52732C8.19991 5.56663 8.11368 5.62425 8.04104 5.69689L1.79104 11.9469C1.71829 12.0195 1.66057 12.1057 1.62118 12.2006C1.5818 12.2955 1.56152 12.3972 1.56152 12.5C1.56152 12.6028 1.5818 12.7045 1.62118 12.7994C1.66057 12.8944 1.71829 12.9806 1.79104 13.0531L8.04104 19.3031C8.11368 19.3758 8.19991 19.4334 8.29482 19.4727C8.38973 19.512 8.49145 19.5322 8.59417 19.5322C8.69689 19.5322 8.79861 19.512 8.89352 19.4727C8.98842 19.4334 9.07466 19.3758 9.14729 19.3031C9.21993 19.2305 9.27755 19.1443 9.31686 19.0494C9.35617 18.9545 9.37641 18.8527 9.37641 18.75C9.37641 18.6473 9.35617 18.5456 9.31686 18.4507C9.27755 18.3558 9.21993 18.2695 9.14729 18.1969L4.23011 13.2813H22.6567C22.8639 13.2813 23.0626 13.199 23.2091 13.0524C23.3556 12.9059 23.4379 12.7072 23.4379 12.5Z" fill="#52AB98"/>
</svg>
