<svg width="40" height="40" viewBox="0 0 40 40" fill="none" xmlns="http://www.w3.org/2000/svg">
<path d="M3.75 15.9375H7.8125V26.5625H5C4.75136 26.5625 4.5129 26.6613 4.33709 26.8371C4.16127 27.0129 4.0625 27.2514 4.0625 27.5C4.0625 27.7486 4.16127 27.9871 4.33709 28.1629C4.5129 28.3387 4.75136 28.4375 5 28.4375H35C35.2486 28.4375 35.4871 28.3387 35.6629 28.1629C35.8387 27.9871 35.9375 27.7486 35.9375 27.5C35.9375 27.2514 35.8387 27.0129 35.6629 26.8371C35.4871 26.6613 35.2486 26.5625 35 26.5625H32.1875V15.9375H36.25C36.4541 15.9373 36.6525 15.8706 36.8152 15.7474C36.9779 15.6242 37.096 15.4513 37.1515 15.255C37.207 15.0586 37.1969 14.8495 37.1227 14.6594C37.0486 14.4692 36.9144 14.3085 36.7406 14.2016L20.4906 4.20156C20.343 4.11091 20.1732 4.06293 20 4.06293C19.8268 4.06293 19.657 4.11091 19.5094 4.20156L3.25938 14.2016C3.08558 14.3085 2.95142 14.4692 2.87728 14.6594C2.80313 14.8495 2.79304 15.0586 2.84854 15.255C2.90404 15.4513 3.0221 15.6242 3.1848 15.7474C3.34749 15.8706 3.54593 15.9373 3.75 15.9375ZM9.6875 15.9375H15.3125V26.5625H9.6875V15.9375ZM22.8125 15.9375V26.5625H17.1875V15.9375H22.8125ZM30.3125 26.5625H24.6875V15.9375H30.3125V26.5625ZM20 6.09374L32.9375 14.0625H7.0625L20 6.09374ZM38.4375 32.5C38.4375 32.7486 38.3387 32.9871 38.1629 33.1629C37.9871 33.3387 37.7486 33.4375 37.5 33.4375H2.5C2.25136 33.4375 2.0129 33.3387 1.83709 33.1629C1.66127 32.9871 1.5625 32.7486 1.5625 32.5C1.5625 32.2514 1.66127 32.0129 1.83709 31.8371C2.0129 31.6613 2.25136 31.5625 2.5 31.5625H37.5C37.7486 31.5625 37.9871 31.6613 38.1629 31.8371C38.3387 32.0129 38.4375 32.2514 38.4375 32.5Z" fill="black"/>
</svg>
