<svg width="60" height="60" viewBox="0 0 60 60" fill="none" xmlns="http://www.w3.org/2000/svg">
<path d="M41.737 7.9968H33.3958C31.8886 8.0016 31.945 10.248 33.3958 10.2348H41.737V11.3832H33.3958C31.897 11.37 31.9522 13.6152 33.3958 13.6212H41.737V14.7948H33.3958C31.897 14.7948 31.9522 17.0388 33.3958 17.0328H41.737V18.1512H33.3958C31.9282 18.162 31.9522 20.4084 33.3958 20.4156H41.737V21.5364H33.3958C31.9282 21.5316 31.9222 23.7744 33.3958 23.7744H41.737V24.8928H33.3958C31.9282 24.8976 31.9222 27.1428 33.3958 27.132H41.737V28.278H33.3958C31.9282 28.2648 31.9222 30.5076 33.3958 30.516H41.737V31.632H33.3958C31.9282 31.6308 31.9522 33.8784 33.3958 33.8712H41.737V55.662C41.7418 58.9824 46.7854 58.9224 46.7998 55.662V4.668C46.7854 3.1512 45.5398 1.2336 43.4902 1.2276H33.3958C31.8886 1.2288 31.945 3.4752 33.3958 3.4656L41.737 3.4932V4.6092H33.3958C31.891 4.602 31.9474 6.8472 33.3958 6.8484H41.737V7.9968ZM32.8222 46.6296C32.8174 42.7536 28.7998 38.5848 23.9998 41.2848V26.46L20.8954 2.01C20.8306 1.3632 20.2822 1.2108 19.9138 1.2C19.5334 1.2108 18.7714 1.3632 18.6886 2.01L15.5998 26.46V41.2848C10.7998 38.5848 6.91184 42.78 6.91064 46.5996C6.91184 49.998 9.52785 52.7892 13.0678 52.7808C16.6342 52.7892 19.1998 49.6608 19.1998 46.5996V31.2H20.3998V46.5996C20.3998 50.0268 23.0542 52.5636 26.0038 52.7244C25.9546 54.6036 26.5678 57.2844 27.7222 58.3476C29.0758 59.5956 30.6874 57.9996 30.0262 56.7C29.3878 55.4904 28.7614 54.774 29.2702 52.1328C31.3966 51.1488 32.8174 49.0776 32.8222 46.6296ZM13.2046 49.6788C12.3955 49.6788 11.6194 49.3574 11.0473 48.7852C10.4751 48.213 10.1536 47.437 10.1536 46.6278C10.1536 45.8186 10.4751 45.0426 11.0473 44.4704C11.6194 43.8982 12.3955 43.5768 13.2046 43.5768C14.8678 43.5864 16.2226 44.9508 16.2346 46.6296C16.2312 47.4339 15.9115 48.2046 15.3445 48.7752C14.7776 49.3457 14.0089 49.6703 13.2046 49.6788ZM23.4898 46.6296C23.4926 45.8245 23.8122 45.0529 24.3795 44.4816C24.9467 43.9104 25.716 43.5853 26.521 43.5768C27.3263 43.5841 28.0963 43.9088 28.6636 44.4803C29.2309 45.0519 29.5498 45.8243 29.551 46.6296C29.5498 47.4346 29.2308 48.2066 28.6634 48.7776C28.0959 49.3486 27.326 49.6725 26.521 49.6788C25.7163 49.6715 24.9467 49.3474 24.3793 48.7766C23.8119 48.2058 23.4923 47.4344 23.4898 46.6296Z" fill="black"/>
</svg>
