<svg width="40" height="40" viewBox="0 0 40 40" fill="none" xmlns="http://www.w3.org/2000/svg">
<g clip-path="url(#clip0_13_44)">
<path d="M16.6667 18.8889H20V21.1111H16.6667V18.8889Z" fill="black"/>
<path d="M29.3889 15.7444C27.4183 12.5198 24.73 9.79346 21.5333 7.77778C20.0566 6.84182 18.3731 6.2816 16.63 6.14602C14.8869 6.01045 13.1371 6.30364 11.5333 7C10.1306 7.66167 8.90993 8.65485 7.97686 9.89379C7.04379 11.1327 6.42632 12.5802 6.17778 14.1111C6.08889 14.6333 6.02222 15.1333 5.95555 15.6222C4.91527 15.7908 3.96875 16.3236 3.28492 17.1255C2.60109 17.9274 2.22445 18.9461 2.22222 20V26.8111C2.22222 27.4005 2.45635 27.9657 2.8731 28.3825C3.28984 28.7992 3.85507 29.0333 4.44444 29.0333V20C4.44444 19.4106 4.67857 18.8454 5.09532 18.4286C5.51206 18.0119 6.0773 17.7778 6.66667 17.7778H27.4778C29.6192 17.7807 31.6721 18.6327 33.1864 20.1469C34.7006 21.6612 35.5526 23.7141 35.5556 25.8556V26.6667H33.3333C32.8641 25.5223 31.9899 24.5909 30.8776 24.05C29.7654 23.5091 28.4929 23.3966 27.3031 23.7341C26.1132 24.0715 25.0892 24.8353 24.4265 25.8795C23.7638 26.9238 23.5088 28.1755 23.7102 29.3958C23.9115 30.6161 24.5551 31.7196 25.5182 32.4956C26.4812 33.2717 27.6963 33.666 28.9315 33.6033C30.1667 33.5406 31.3356 33.0253 32.2151 32.1558C33.0946 31.2862 33.6232 30.1233 33.7 28.8889H35.5556C36.1449 28.8889 36.7102 28.6548 37.1269 28.238C37.5437 27.8213 37.7778 27.256 37.7778 26.6667V25.8556C37.7733 23.4577 36.9333 21.1364 35.4022 19.291C33.8711 17.4455 31.7447 16.1915 29.3889 15.7444ZM12.2222 15.5556H7.7C7.7 15.2111 7.8 14.8556 7.86667 14.4444C8.05863 13.2238 8.55961 12.0726 9.32196 11.1002C10.0843 10.1278 11.0827 9.36661 12.2222 8.88889V15.5556ZM14.4444 15.5556V8.42222C16.5188 8.15284 18.6226 8.60814 20.4 9.71111C22.8264 11.2224 24.9205 13.2107 26.5556 15.5556H14.4444ZM28.6667 31.5333C28.1173 31.5333 27.5802 31.3704 27.1234 31.0652C26.6666 30.76 26.3106 30.3261 26.1003 29.8186C25.8901 29.311 25.8351 28.7525 25.9423 28.2136C26.0494 27.6748 26.314 27.1798 26.7025 26.7914C27.091 26.4029 27.5859 26.1383 28.1248 26.0312C28.6636 25.924 29.2221 25.979 29.7297 26.1892C30.2372 26.3995 30.6711 26.7555 30.9763 27.2123C31.2815 27.6691 31.4444 28.2062 31.4444 28.7556C31.4444 29.4923 31.1518 30.1988 30.6309 30.7197C30.1099 31.2407 29.4034 31.5333 28.6667 31.5333Z" fill="black"/>
<path d="M15.7444 26.6667C15.2752 25.5224 14.401 24.5909 13.2888 24.05C12.1765 23.5091 10.904 23.3966 9.71416 23.7341C8.52429 24.0715 7.50031 24.8353 6.83763 25.8795C6.17495 26.9238 5.91995 28.1755 6.1213 29.3959C6.32265 30.6162 6.96625 31.7196 7.92929 32.4956C8.89232 33.2717 10.1074 33.666 11.3426 33.6033C12.5778 33.5406 13.7467 33.0253 14.6262 32.1558C15.5057 31.2862 16.0343 30.1233 16.1111 28.8889H22V28.6111C21.978 27.9556 22.0529 27.3004 22.2222 26.6667H15.7444ZM11.1111 31.5333C10.5617 31.5333 10.0247 31.3704 9.56786 31.0652C9.11106 30.76 8.75502 30.3261 8.54478 29.8186C8.33453 29.311 8.27953 28.7525 8.38671 28.2136C8.49389 27.6748 8.75845 27.1799 9.14692 26.7914C9.5354 26.4029 10.0304 26.1383 10.5692 26.0312C11.108 25.924 11.6665 25.979 12.1741 26.1892C12.6817 26.3995 13.1155 26.7555 13.4207 27.2123C13.726 27.6691 13.8889 28.2062 13.8889 28.7556C13.8889 29.4923 13.5962 30.1988 13.0753 30.7197C12.5544 31.2407 11.8478 31.5333 11.1111 31.5333Z" fill="black"/>
</g>
<defs>
<clipPath id="clip0_13_44">
<rect width="40" height="40" fill="white"/>
</clipPath>
</defs>
</svg>
