<svg width="240" height="268" viewBox="0 0 240 268" fill="none" xmlns="http://www.w3.org/2000/svg">
<ellipse cx="135.111" cy="124.621" rx="109.275" ry="56.1988" transform="rotate(60.4013 135.111 124.621)" fill="#D9D9D9" fill-opacity="0.01"/>
<path d="M188.838 219.201C175.591 226.726 157.552 223.151 138.997 211.016C120.466 198.897 101.554 178.315 86.6806 152.131C71.8072 125.948 63.8131 99.1644 62.8925 77.0414C61.9708 54.8892 68.1375 37.5646 81.3843 30.0398C94.6311 22.5149 112.67 26.0897 131.225 38.2251C149.756 50.3445 168.668 70.9265 183.541 97.1097C198.415 123.293 206.409 150.077 207.329 172.2C208.251 194.352 202.084 211.677 188.838 219.201Z" stroke="#04DA8D" stroke-opacity="0.45"/>
<ellipse cx="127.431" cy="129.164" rx="109.275" ry="56.1988" transform="rotate(60.4013 127.431 129.164)" fill="#D9D9D9" fill-opacity="0.01"/>
<path d="M181.158 223.745C167.911 231.27 149.872 227.695 131.317 215.56C112.786 203.44 93.8741 182.858 79.0007 156.675C64.1274 130.492 56.1332 103.708 55.2127 81.5851C54.291 59.4329 60.4577 42.1083 73.7045 34.5835C86.9513 27.0586 104.99 30.6334 123.545 42.7688C142.076 54.8882 160.988 75.4702 175.862 101.653C190.735 127.837 198.729 154.621 199.65 176.743C200.571 198.896 194.405 216.22 181.158 223.745Z" stroke="#04DA8D" stroke-opacity="0.45"/>
<ellipse cx="119.751" cy="133.708" rx="109.275" ry="56.1988" transform="rotate(60.4013 119.751 133.708)" fill="#D9D9D9" fill-opacity="0.01"/>
<path d="M173.478 228.289C160.231 235.814 142.193 232.239 123.637 220.103C105.106 207.984 86.1944 187.402 71.321 161.219C56.4476 135.036 48.4535 108.252 47.533 86.1288C46.6113 63.9766 52.778 46.652 66.0248 39.1272C79.2715 31.6023 97.3101 35.1771 115.866 47.3125C134.396 59.4319 153.308 80.0139 168.182 106.197C183.055 132.38 191.049 159.164 191.97 181.287C192.892 203.439 186.725 220.764 173.478 228.289Z" stroke="#04DA8D" stroke-opacity="0.45"/>
<ellipse cx="112.072" cy="138.252" rx="109.275" ry="56.1988" transform="rotate(60.4013 112.072 138.252)" fill="#D9D9D9" fill-opacity="0.01"/>
<path d="M165.798 232.833C152.552 240.357 134.513 236.783 115.958 224.647C97.4267 212.528 78.5146 191.946 63.6413 165.763C48.7679 139.579 40.7737 112.795 39.8532 90.6725C38.9315 68.5203 45.0982 51.1957 58.345 43.6709C71.5918 36.146 89.6304 39.7208 108.186 51.8562C126.717 63.9756 145.629 84.5576 160.502 110.741C175.375 136.924 183.37 163.708 184.29 185.831C185.212 207.983 179.045 225.308 165.798 232.833Z" stroke="#04DA8D" stroke-opacity="0.45"/>
<ellipse cx="104.392" cy="142.795" rx="109.275" ry="56.1988" transform="rotate(60.4013 104.392 142.795)" fill="#D9D9D9" fill-opacity="0.01"/>
<path d="M158.119 237.376C144.872 244.901 126.833 241.326 108.278 229.191C89.7469 217.071 70.8349 196.49 55.9615 170.306C41.0881 144.123 33.094 117.339 32.1735 95.2162C31.2518 73.064 37.4185 55.7394 50.6653 48.2146C63.912 40.6897 81.9507 44.2645 100.506 56.3999C119.037 68.5193 137.949 89.1013 152.822 115.285C167.696 141.468 175.69 168.252 176.61 190.375C177.532 212.527 171.365 229.851 158.119 237.376Z" stroke="#04DA8D" stroke-opacity="0.45"/>
</svg>
