<svg width="40" height="40" viewBox="0 0 40 40" fill="none" xmlns="http://www.w3.org/2000/svg">
<path d="M23.3333 33.3333V37.5M16.6667 33.3333V37.5M23.3333 6.66667V2.5M16.6667 6.66667V2.5M11.6667 20H7.5M32.5 20H28.3333M11.6667 10.8333H7.5M32.5 10.8333H28.3333M11.6667 29.1667H7.5M32.5 29.1667H28.3333M11.6667 32.3333V7.66667C11.6667 7.40145 11.772 7.1471 11.9596 6.95956C12.1471 6.77202 12.4014 6.66667 12.6667 6.66667H27.3333C27.4647 6.66667 27.5947 6.69253 27.716 6.74279C27.8373 6.79304 27.9476 6.8667 28.0404 6.95956C28.1333 7.05242 28.207 7.16266 28.2572 7.28398C28.3075 7.40531 28.3333 7.53534 28.3333 7.66667V32.3333C28.3333 32.4647 28.3075 32.5947 28.2572 32.716C28.207 32.8373 28.1333 32.9476 28.0404 33.0404C27.9476 33.1333 27.8373 33.207 27.716 33.2572C27.5947 33.3075 27.4647 33.3333 27.3333 33.3333H12.6667C12.4014 33.3333 12.1471 33.228 11.9596 33.0404C11.772 32.8529 11.6667 32.5985 11.6667 32.3333Z" stroke="black" stroke-width="1.5" stroke-linecap="round" stroke-linejoin="round"/>
</svg>
