<svg width="40" height="40" viewBox="0 0 40 40" fill="none" xmlns="http://www.w3.org/2000/svg">
<path d="M33.3333 20H6.66667L3.33333 36.6667H36.6667L33.3333 20ZM30.6 23.3334L31.2667 26.6667H21.6667V23.3334H30.6ZM18.3333 23.3334V26.6667H8.73333L9.4 23.3334H18.3333ZM8.06667 30H18.3333V33.3334H7.4L8.06667 30ZM21.6667 33.3334V30H31.9333L32.6 33.3334H21.6667ZM18.3333 13.3334H21.6667V18.3334H18.3333V13.3334ZM26.2667 12.0167L28.6333 9.65004L32.1667 13.1834L29.8167 15.55L26.2667 12.0167ZM7.85 13.1834L11.3833 9.65004L13.7333 12.0167L10.2 15.55L7.85 13.1834ZM5 3.33337H10V6.66671H5V3.33337ZM30 3.33337H35V6.66671H30V3.33337ZM20 11.6667C24.6 11.6667 28.3333 7.93337 28.3333 3.33337H25C25 6.08337 22.75 8.33337 20 8.33337C17.25 8.33337 15 6.08337 15 3.33337H11.6667C11.6667 7.93337 15.4 11.6667 20 11.6667Z" fill="black"/>
</svg>
