<svg width="60" height="60" viewBox="0 0 60 60" fill="none" xmlns="http://www.w3.org/2000/svg">
<g clip-path="url(#clip0_137_60)">
<path d="M14.4624 8.535C15.5388 7.90409 16.6573 7.34778 17.8099 6.87C20.2272 5.84822 22.787 5.20323 25.3999 4.9575L28.2174 8.1425L26.9049 11.44C24.3604 11.9319 21.9235 12.8715 19.7074 14.215L19.2199 14.515L18.7749 10.1725L14.4624 8.5225V8.535ZM13.2374 9.31L17.7099 11.035L18.1799 15.31C15.7613 17.0857 13.8174 19.4297 12.5199 22.135C12.3944 22.3804 12.2785 22.6306 12.1724 22.885L9.02235 19.0625L3.88735 20.1475C5.16019 17.398 6.90585 14.8933 9.04485 12.7475C10.3324 11.4425 11.7199 10.3 13.2124 9.3075L13.2374 9.31ZM42.6924 39.44C43.1799 38.63 43.5774 37.81 43.8923 36.965L48.7374 42.84L56.8749 41.0875C56.4047 42.3776 55.8519 43.636 55.2198 44.855C53.5668 48.0501 51.32 50.9009 48.5999 53.255C45.854 55.6418 42.6443 57.4352 39.1724 58.5225C39.1049 58.545 39.0324 58.5625 38.9649 58.5875L32.9374 53.49L34.5099 46.5525L34.6374 46.5C38.0849 45 40.7799 42.6775 42.6974 39.4125V39.44H42.6924ZM52.8824 12.0125C53.3799 12.695 53.8424 13.4125 54.2899 14.1475C56.1325 17.241 57.4337 20.6262 58.1374 24.1575C58.8148 27.6825 58.9249 31.23 58.4374 34.7875C58.1835 36.4839 57.7956 38.1574 57.2774 39.7925L49.1399 41.54L44.2649 35.6475C44.8423 33.4326 44.8937 31.1133 44.4149 28.875C43.8989 26.2049 42.6388 23.7349 40.7799 21.75L49.5523 20.7L52.8174 12.01L52.8824 12.0125ZM3.34485 21.46L8.59485 20.35L11.6849 24.1225C10.7074 26.8325 10.4849 29.6475 10.9724 32.5725C11.0849 33.4075 11.2699 34.2125 11.4974 34.995L5.94735 33.7325L1.97235 38.435C1.49403 36.3406 1.25666 34.1983 1.26485 32.05C1.27235 28.4225 1.93985 24.925 3.28235 21.5525L3.32235 21.455L3.34485 21.46ZM11.9499 36.295C12.7597 38.4243 13.9537 40.3869 15.4724 42.085C16.6349 43.4325 17.9474 44.5225 19.3799 45.3825L13.8799 48.535L14.1799 55.695C12.3598 54.5608 10.6813 53.2138 9.17985 51.6825C6.6544 49.0985 4.6661 46.0395 3.32985 42.6825C2.95735 41.745 2.65485 40.8075 2.39235 39.87L6.47985 35.0725L12.0299 36.345L11.9499 36.295ZM20.5799 46.0375C21.7624 46.6275 23.0274 47.0775 24.3749 47.3875C27.2914 48.0917 30.3463 47.9696 33.1974 47.035L31.6349 53.9275L37.6024 58.9775C34.6187 59.7579 31.5367 60.0956 28.4549 59.98C23.8721 59.8435 19.3883 58.6134 15.3774 56.3925L15.0799 49.1875L20.5799 46.0375ZM52.0374 10.91L48.7549 19.625L39.7199 20.7125C39.4622 20.4816 39.1891 20.2686 38.9024 20.075C36.0018 17.8483 32.5326 16.4837 28.8924 16.1375C28.0274 16.065 27.2049 16.065 26.4174 16.065L29.5674 8L22.7499 0.237502C24.8174 0.0125024 26.8424 -0.0224976 28.8974 0.0125024C30.1224 0.0500024 31.3349 0.140002 32.5449 0.295002C34.2449 0.517502 35.9224 0.892502 37.5824 1.345C41.0949 2.345 44.2949 3.93 47.1874 6.17C48.99 7.54772 50.6186 9.13939 52.0374 10.91Z" fill="black"/>
</g>
<defs>
<clipPath id="clip0_137_60">
<rect width="60" height="60" fill="white"/>
</clipPath>
</defs>
</svg>
