<svg width="40" height="40" viewBox="0 0 40 40" fill="none" xmlns="http://www.w3.org/2000/svg">
<path d="M37.5 21.25H34.5828C34.1669 22.1158 33.6905 22.9512 33.157 23.75H37.5V21.25ZM2.5 18.75V21.25H5.41719C5.03112 20.4425 4.70727 19.6068 4.44844 18.75H2.5Z" fill="black"/>
<path d="M23.75 20.2954L19.7086 28.3782L15.9586 15.8782L13.2726 21.25H5.41718C6.19843 22.8844 7.25311 24.4852 8.59139 26.0688C11.7258 29.7766 15.9547 32.2993 19.2945 34.5313L19.9976 35L20.7008 34.5313C24.043 32.2993 28.2719 29.7766 31.4039 26.0688C32.0324 25.3302 32.6177 24.556 33.157 23.75H25.4773L23.75 20.2954Z" fill="black"/>
<path d="M16.5414 9.12188L20.2914 21.6219L23.75 14.7047L27.0227 21.25H34.5828C35.7079 18.9295 36.2786 16.3795 36.25 13.8008C36.2008 8.94844 32.3078 5 27.5719 5C23.8133 5 21.3141 7.1875 20 8.76641C18.6859 7.1875 16.1867 5 12.4281 5C7.69218 5 3.79921 8.94844 3.75 13.8008C3.73017 15.4764 3.96568 17.1453 4.44843 18.75H11.7273L16.5414 9.12188Z" fill="black"/>
</svg>
