<svg width="24" height="24" viewBox="0 0 24 24" fill="none" xmlns="http://www.w3.org/2000/svg">
<path d="M7.05677 2.41799L8.22377 2.06699C8.86306 1.87422 9.55066 1.92062 10.1582 2.19755C10.7658 2.47448 11.2519 2.96302 11.5258 3.57199L12.4278 5.57799C12.6632 6.1018 12.7288 6.68617 12.6153 7.24913C12.5018 7.81209 12.2148 8.32538 11.7948 8.71699L10.2998 10.11C10.2561 10.1507 10.2284 10.2057 10.2218 10.265C10.1778 10.662 10.4468 11.435 11.0678 12.51C11.5178 13.291 11.9268 13.84 12.2738 14.147C12.5168 14.362 12.6498 14.408 12.7068 14.392L14.7168 13.777C15.2657 13.6091 15.8534 13.6172 16.3975 13.8001C16.9416 13.983 17.4148 14.3316 17.7508 14.797L19.0308 16.573C19.4204 17.113 19.601 17.776 19.5388 18.439C19.4766 19.102 19.176 19.7199 18.6928 20.178L17.8058 21.018C17.3355 21.4633 16.758 21.7792 16.1294 21.935C15.5008 22.0908 14.8425 22.0812 14.2188 21.907C11.4648 21.138 8.99577 18.814 6.78377 14.983C4.56977 11.147 3.79177 7.84299 4.50977 5.06999C4.67095 4.44633 4.99006 3.8747 5.43635 3.41019C5.88264 2.94569 6.44005 2.60398 7.05677 2.41799ZM7.48977 3.85499C7.11966 3.9663 6.78446 4.17107 6.51648 4.44956C6.2485 4.72805 6.05677 5.07088 5.95977 5.44499C5.35777 7.77699 6.04677 10.706 8.08277 14.233C10.1168 17.755 12.3058 19.815 14.6228 20.463C14.9971 20.5674 15.392 20.5731 15.7691 20.4795C16.1462 20.3859 16.4927 20.1962 16.7748 19.929L17.6608 19.089C17.8806 18.8808 18.0174 18.5999 18.0457 18.2984C18.074 17.997 17.992 17.6955 17.8148 17.45L16.5348 15.675C16.382 15.4632 16.1668 15.3046 15.9193 15.2213C15.6718 15.1381 15.4044 15.1345 15.1548 15.211L13.1398 15.828C11.9698 16.176 10.9088 15.235 9.76877 13.26C8.99977 11.93 8.64177 10.9 8.73177 10.099C8.77777 9.68299 8.97178 9.29899 9.27677 9.01299L10.7718 7.61999C10.9626 7.44189 11.0929 7.2085 11.1444 6.95258C11.1959 6.69665 11.1659 6.43103 11.0588 6.19299L10.1578 4.18699C10.0333 3.91018 9.81231 3.68813 9.53611 3.56227C9.25992 3.4364 8.94736 3.41534 8.65677 3.50299L7.48977 3.85499Z" fill="#444444"/>
</svg>
