<svg width="40" height="40" viewBox="0 0 40 40" fill="none" xmlns="http://www.w3.org/2000/svg">
<path d="M37.196 8.79999H2.8168C1.7112 8.79999 0.806396 9.80559 0.806396 10.8C0.806396 11.7944 1.7112 12.7992 2.8168 12.7992H3.3024V16.7992H36.7592V12.7992H37.196C38.3024 12.7992 39.2064 11.7944 39.2064 10.8C39.2064 9.80559 38.3024 8.79999 37.196 8.79999ZM20.0064 14.816C19.4512 14.816 19.0016 14.3528 19.0016 13.7824C19.0016 13.212 19.4512 12.7488 20.0064 12.7488C20.5624 12.7488 21.0112 13.212 21.0112 13.7824C21.0112 14.3528 20.5624 14.816 20.0064 14.816ZM3.3024 24.7984H36.7592V18.4H3.3024V24.7984ZM20.0064 20.4992C20.5624 20.4992 21.0112 20.9616 21.0112 21.532C21.0112 22.1032 20.5624 22.5656 20.0064 22.5656C19.4512 22.5656 19.0016 22.1032 19.0016 21.532C19.0008 20.9616 19.4512 20.4992 20.0064 20.4992ZM3.3024 30.316V34.9672C3.3024 35.5352 3.3736 36.0008 3.9264 36.0008H7.9456C8.4984 36.0008 8.7488 35.5352 8.7488 34.9672V31.9992H31.3128V34.9672C31.3128 35.5352 31.5144 36.0008 32.0664 36.0008H36.0864C36.6376 36.0008 36.7584 35.5352 36.7584 34.9672V26.4H3.3024V30.316ZM20.0064 28.2496C20.5624 28.2496 21.0112 28.7128 21.0112 29.2824C21.0112 29.8544 20.5624 30.3152 20.0064 30.3152C19.4512 30.3152 19.0016 29.8544 19.0016 29.2824C19.0008 28.7136 19.4512 28.2496 20.0064 28.2496Z" fill="black"/>
</svg>
