<svg width="60" height="60" viewBox="0 0 60 60" fill="none" xmlns="http://www.w3.org/2000/svg">
<g clip-path="url(#clip0_140_36)">
<path fill-rule="evenodd" clip-rule="evenodd" d="M55.3125 31.875H51.5625V35.625H55.3125V31.875Z" fill="black"/>
<path fill-rule="evenodd" clip-rule="evenodd" d="M55.3313 43.0913V37.9144C56.627 37.68 57.7985 36.996 58.6394 35.9829C59.4804 34.9697 59.937 33.6923 59.9288 32.3756C59.9245 31.6399 59.773 30.9125 59.4832 30.2363C59.1933 29.56 58.7711 28.9486 58.2413 28.4381L38.6288 9.1125C37.5753 8.07746 36.1569 7.49827 34.68 7.5L34.6707 7.50938C33.1995 7.50709 31.786 8.08124 30.7332 9.10875L28.3575 11.4375C27.9504 10.8057 27.3915 10.2859 26.7319 9.92567C26.0723 9.56539 25.3329 9.37608 24.5813 9.375H20.475C19.2756 9.37798 18.1262 9.85656 17.2791 10.7058C16.432 11.555 15.9563 12.7055 15.9563 13.905V23.655L11.0382 28.5C10.303 29.2252 9.78342 30.14 9.53702 31.1427C9.29063 32.1455 9.32712 33.197 9.64244 34.1802C9.95776 35.1635 10.5396 36.0401 11.3232 36.7125C12.1068 37.385 13.0615 37.827 14.0813 37.9894V52.5H12.2063V39.4069C10.5315 38.7426 9.15388 37.4943 8.32833 35.8929C7.50278 34.2914 7.28514 32.4452 7.71566 30.6956C8.04519 29.3559 8.73966 28.1338 9.72191 27.165L14.0813 22.8713V18.75C10.68 18.8119 7.93691 21.6413 7.93691 25.1156H7.78504C4.65566 25.1156 2.09816 27.6956 2.09816 30.8981V32.0831C2.09816 33.2663 2.46191 34.3725 3.05441 35.3044C2.12074 35.8572 1.34773 36.6444 0.811975 37.588C0.276224 38.5315 -0.00366754 39.5987 3.62874e-05 40.6838C3.62874e-05 44.1 2.72816 46.875 6.08629 46.875H9.37504V52.5C7.31254 52.5 5.62504 54.1875 5.62504 56.25H58.125C58.1259 55.7128 58.0108 55.1817 57.7875 54.693C57.5642 54.2044 57.238 53.7697 56.8313 53.4188C57.2037 52.8474 57.4993 52.2296 57.7107 51.5813C58.1806 50.1897 58.2494 48.694 57.9092 47.2653C57.569 45.8365 56.8335 44.5323 55.7869 43.5019L55.7738 43.4906C55.6312 43.3522 55.4836 43.219 55.3313 43.0913ZM25.3313 13.905V17.8275L19.7063 23.3756V13.905C19.7055 13.8033 19.7248 13.7025 19.7631 13.6082C19.8013 13.514 19.8577 13.4282 19.9291 13.3558C20.0005 13.2834 20.0855 13.2257 20.1791 13.1861C20.2728 13.1465 20.3733 13.1257 20.475 13.125H24.5813C24.6824 13.1249 24.7824 13.1453 24.8754 13.1848C24.9684 13.2244 25.0525 13.2823 25.1225 13.3552C25.1926 13.428 25.2472 13.5143 25.283 13.6088C25.3189 13.7033 25.3353 13.804 25.3313 13.905ZM17.8313 52.5V32.2875L34.6725 15.6844L51.5625 32.3156V35.625H51.5813V41.3531C50.6421 41.1985 49.6826 41.2169 48.75 41.4075V35.0925C48.749 34.7368 48.6073 34.3959 48.3557 34.1443C48.1042 33.8928 47.7633 33.751 47.4075 33.75H40.7175C40.3618 33.751 40.0209 33.8928 39.7693 34.1443C39.5178 34.3959 39.376 34.7368 39.375 35.0925V41.7825C39.377 42.138 39.5191 42.4783 39.7704 42.7296C40.0218 42.981 40.3621 43.123 40.7175 43.125H45.2494C44.4439 43.8118 43.783 44.6518 43.305 45.5963C42.2983 45.9391 41.4055 46.553 40.7251 47.3704C40.0446 48.1879 39.6028 49.1771 39.4482 50.2294C39.4182 50.3606 39.4013 50.4956 39.3994 50.6306C39.3806 50.7811 39.3724 50.9327 39.375 51.0844V51.1031C39.375 51.5869 39.435 52.0538 39.5457 52.5H37.5C37.5 51.4706 36.8213 50.625 35.9944 50.625H35.6213V35.8538C35.6213 34.6894 34.7644 33.75 33.7013 33.75H26.295C25.2319 33.75 24.375 34.6894 24.375 35.8538V50.625H24.0057C23.1807 50.625 22.5 51.4706 22.5 52.5H17.8313ZM41.5125 52.5C41.8107 53.2669 42.3488 53.9119 43.0313 54.3563H53.1V54.375L53.1338 54.3563C54.0352 53.871 54.7931 53.1571 55.3313 52.2863C55.5823 51.8792 55.7837 51.4436 55.9313 50.9888C56.2924 49.9298 56.3468 48.7903 56.088 47.7017C55.8292 46.6132 55.2679 45.62 54.4688 44.8369C53.3623 43.7382 51.8656 43.1227 50.3063 43.125C47.9625 43.125 45.9188 44.5163 44.9438 46.5113C44.8472 46.7143 44.7087 46.8947 44.5374 47.0404C44.3661 47.1862 44.166 47.294 43.95 47.3569C42.525 47.8088 41.475 49.0894 41.2875 50.6119C41.2688 50.6494 41.2688 50.6869 41.2875 50.7244C41.25 50.8369 41.25 50.9681 41.25 51.1013C41.25 51.5963 41.3438 52.0669 41.5125 52.5ZM32.8125 45C33.0612 45 33.2996 44.9012 33.4754 44.7254C33.6513 44.5496 33.75 44.3111 33.75 44.0625C33.75 43.8139 33.6513 43.5754 33.4754 43.3996C33.2996 43.2238 33.0612 43.125 32.8125 43.125C32.5639 43.125 32.3254 43.2238 32.1496 43.3996C31.9738 43.5754 31.875 43.8139 31.875 44.0625C31.875 44.3111 31.9738 44.5496 32.1496 44.7254C32.3254 44.9012 32.5639 45 32.8125 45Z" fill="black"/>
</g>
<defs>
<clipPath id="clip0_140_36">
<rect width="60" height="60" fill="white"/>
</clipPath>
</defs>
</svg>
