<svg width="40" height="40" viewBox="0 0 40 40" fill="none" xmlns="http://www.w3.org/2000/svg">
<path d="M37.1808 16.5296L37.1704 16.4488C37.1514 16.3476 37.1172 16.25 37.0688 16.1592L32 7.99995C32 7.99995 31.3536 7.19995 31.2 7.19995H9.60002L3.10402 15.8824L3.02722 15.9623L3.01682 16C2.96195 16.0881 2.91688 16.182 2.88242 16.28L2.85602 16.3576C2.78117 16.6059 2.78481 16.8713 2.86642 17.1175L2.89682 17.2048C2.93762 17.308 2.98802 17.4024 3.04722 17.4864L18.752 37.3799L18.784 37.4256C18.8648 37.5296 18.9632 37.6215 19.0832 37.7055L19.1744 37.7623C19.264 37.8183 19.3576 37.8631 19.4936 37.9127L19.5824 37.9424C19.736 37.9816 19.8696 37.9999 20 37.9999C20.132 37.9999 20.2608 37.9823 20.4344 37.9375L20.5408 37.9C20.6448 37.8631 20.7384 37.8176 20.8512 37.7479L20.9216 37.704C21.0424 37.6184 21.1392 37.5256 21.1928 37.4528L36.9176 17.5384C37.0567 17.3528 37.1474 17.1357 37.1816 16.9064L37.1936 16.8032L37.2 16.7216L37.1808 16.5296ZM28.7488 16L30.9872 11.9496L33.224 16H28.7488ZM27.4064 18.4H32.7168L23.8656 29.6119L27.4064 18.4ZM26.0928 14.7856L22.86 10.4H28.516L26.0928 14.7856ZM15.7376 18.4H24.2648L20 31.9015L15.7376 18.4ZM16.5832 16L20 11.3632L23.4168 16H16.5832ZM14.1768 14.4224L12.6952 10.4H17.1408L14.1768 14.4224ZM16.136 29.6127L7.28402 18.4H12.5952L16.136 29.6127ZM10.132 11.9776L11.6144 16H7.16802L10.132 11.9776Z" fill="black"/>
</svg>
