<svg width="1315" height="1919" viewBox="0 0 1315 1919" fill="none" xmlns="http://www.w3.org/2000/svg">
<ellipse cx="812.206" cy="954.2" rx="945.296" ry="486.152" transform="rotate(88.9879 812.206 954.2)" fill="#D9D9D9" fill-opacity="0.01"/>
<path d="M828.895 1898.85C694.953 1901.21 571.699 1797.78 480.746 1628.36C389.807 1458.96 331.24 1223.71 326.63 962.778C322.02 701.846 372.241 464.679 457.14 292.172C542.052 119.639 661.575 11.9181 795.518 9.55179C929.46 7.1855 1052.71 110.617 1143.67 280.044C1234.61 449.444 1293.17 684.689 1297.78 945.622C1302.39 1206.55 1252.17 1443.72 1167.27 1616.23C1082.36 1788.76 962.837 1896.48 828.895 1898.85Z" stroke="#04DA8D" stroke-opacity="0.45"/>
<ellipse cx="735.064" cy="956.926" rx="945.296" ry="486.152" transform="rotate(88.9879 735.064 956.926)" fill="#D9D9D9" fill-opacity="0.01"/>
<path d="M751.752 1901.57C617.81 1903.94 494.557 1800.51 403.603 1631.08C312.664 1461.68 254.097 1226.44 249.487 965.505C244.878 704.572 295.099 467.406 379.998 294.899C464.91 122.365 584.433 14.6444 718.375 12.2781C852.317 9.91182 975.571 113.344 1066.52 282.77C1157.46 452.171 1216.03 687.415 1220.64 948.348C1225.25 1209.28 1175.03 1446.45 1090.13 1618.95C1005.22 1791.49 885.695 1899.21 751.752 1901.57Z" stroke="#04DA8D" stroke-opacity="0.45"/>
<ellipse cx="657.921" cy="959.653" rx="945.296" ry="486.152" transform="rotate(88.9879 657.921 959.653)" fill="#D9D9D9" fill-opacity="0.01"/>
<path d="M674.61 1904.3C540.668 1906.67 417.414 1803.24 326.461 1633.81C235.522 1464.41 176.955 1229.16 172.345 968.231C167.735 707.298 217.956 470.132 302.855 297.625C387.767 125.091 507.29 17.3707 641.232 15.0044C775.175 12.6381 898.428 116.07 989.381 285.496C1080.32 454.897 1138.89 690.142 1143.5 951.074C1148.11 1212.01 1097.89 1449.17 1012.99 1621.68C928.075 1794.21 808.552 1901.93 674.61 1904.3Z" stroke="#04DA8D" stroke-opacity="0.45"/>
<ellipse cx="580.78" cy="962.379" rx="945.296" ry="486.152" transform="rotate(88.9879 580.78 962.379)" fill="#D9D9D9" fill-opacity="0.01"/>
<path d="M597.468 1907.03C463.526 1909.39 340.272 1805.96 249.319 1636.54C158.38 1467.13 99.8131 1231.89 95.2033 970.958C90.5935 710.025 140.815 472.859 225.714 300.351C310.625 127.818 430.149 20.0973 564.091 17.731C698.033 15.3647 821.287 118.796 912.24 288.223C1003.18 457.624 1061.75 692.868 1066.36 953.801C1070.97 1214.73 1020.74 1451.9 935.846 1624.41C850.934 1796.94 731.41 1904.66 597.468 1907.03Z" stroke="#04DA8D" stroke-opacity="0.45"/>
<ellipse cx="503.633" cy="965.104" rx="945.296" ry="486.152" transform="rotate(88.9879 503.633 965.104)" fill="#D9D9D9" fill-opacity="0.01"/>
<path d="M520.322 1909.75C386.379 1912.12 263.126 1808.69 172.173 1639.26C81.2334 1469.86 22.6666 1234.61 18.0568 973.682C13.4471 712.749 63.668 475.583 148.567 303.076C233.479 130.542 353.002 22.8217 486.944 20.4554C620.887 18.0891 744.14 121.521 835.093 290.947C926.033 460.348 984.6 695.592 989.209 956.525C993.819 1217.46 943.598 1454.62 858.699 1627.13C773.787 1799.66 654.264 1907.39 520.322 1909.75Z" stroke="#04DA8D" stroke-opacity="0.45"/>
</svg>
