<svg width="25" height="25" viewBox="0 0 25 25" fill="none" xmlns="http://www.w3.org/2000/svg">
<g clip-path="url(#clip0_152_1323)">
<path d="M22.9167 0H2.08333C1.5308 0 1.00089 0.219493 0.610194 0.610194C0.219493 1.00089 0 1.5308 0 2.08333V22.9167C0 23.4692 0.219493 23.9991 0.610194 24.3898C1.00089 24.7805 1.5308 25 2.08333 25H22.9167C23.4692 25 23.9991 24.7805 24.3898 24.3898C24.7805 23.9991 25 23.4692 25 22.9167V2.08333C25 1.5308 24.7805 1.00089 24.3898 0.610194C23.9991 0.219493 23.4692 0 22.9167 0ZM12.5742 20.5286L11.8633 21.2383C10.7842 22.2893 9.33449 22.8731 7.82813 22.8632C6.32176 22.8533 4.87991 22.2505 3.81472 21.1853C2.74954 20.1201 2.14673 18.6782 2.13681 17.1719C2.12689 15.6655 2.71065 14.2158 3.76172 13.1367L6.88672 10.0117C7.82488 9.076 9.0579 8.4937 10.3765 8.36364C11.6952 8.23358 13.0182 8.56377 14.1211 9.29818C14.3507 9.45185 14.5099 9.69046 14.5637 9.9615C14.6174 10.2326 14.5612 10.5138 14.4076 10.7435C14.2539 10.9731 14.0153 11.1323 13.7442 11.1861C13.4732 11.2398 13.1919 11.1836 12.9622 11.0299C12.2609 10.5616 11.4188 10.351 10.5795 10.4338C9.74024 10.5167 8.95564 10.8879 8.35937 11.4844L5.23437 14.6094C4.55061 15.2931 4.16648 16.2205 4.16648 17.1875C4.16648 17.6663 4.26079 18.1404 4.44402 18.5828C4.62725 19.0251 4.89581 19.4271 5.23437 19.7656C5.57294 20.1042 5.97487 20.3728 6.41723 20.556C6.85958 20.7392 7.3337 20.8335 7.8125 20.8335C8.77948 20.8335 9.70686 20.4494 10.3906 19.7656L11.1003 19.0547C11.2957 18.8592 11.5608 18.7494 11.8372 18.7494C12.1137 18.7494 12.3788 18.8592 12.5742 19.0547C12.7697 19.2501 12.8795 19.5152 12.8795 19.7917C12.8795 20.0681 12.7697 20.3332 12.5742 20.5286ZM21.2383 11.8633L18.1133 14.9883C17.1751 15.924 15.9421 16.5063 14.6235 16.6364C13.3048 16.7664 11.9818 16.4362 10.8789 15.7018C10.6493 15.5481 10.4901 15.3095 10.4363 15.0385C10.3826 14.7674 10.4388 14.4862 10.5924 14.2565C10.7461 14.0269 10.9847 13.8677 11.2558 13.8139C11.5268 13.7602 11.8081 13.8164 12.0378 13.9701C12.7396 14.4369 13.5814 14.6467 14.4203 14.5639C15.2591 14.4811 16.0436 14.1107 16.6406 13.5156L19.7656 10.3906C20.4494 9.70686 20.8335 8.77948 20.8335 7.8125C20.8335 6.84552 20.4494 5.91814 19.7656 5.23437C19.0819 4.55061 18.1545 4.16648 17.1875 4.16648C16.2205 4.16648 15.2931 4.55061 14.6094 5.23437L13.8997 5.94531C13.7043 6.14077 13.4392 6.25058 13.1628 6.25058C12.8863 6.25058 12.6212 6.14077 12.4258 5.94531C12.2303 5.74985 12.1205 5.48475 12.1205 5.20833C12.1205 4.93191 12.2303 4.66681 12.4258 4.47135L13.1367 3.76172C14.2158 2.71065 15.6655 2.12689 17.1719 2.13681C18.6782 2.14673 20.1201 2.74954 21.1853 3.81472C22.2505 4.87991 22.8533 6.32176 22.8632 7.82813C22.8731 9.33449 22.2893 10.7842 21.2383 11.8633Z" fill="#52AB98"/>
</g>
<defs>
<clipPath id="clip0_152_1323">
<rect width="25" height="25" fill="white"/>
</clipPath>
</defs>
</svg>
