<svg width="32" height="32" viewBox="0 0 32 32" fill="none" xmlns="http://www.w3.org/2000/svg">
<path d="M15.9998 22.6666L17.3332 20V13.144C19.6278 12.548 21.3332 10.4773 21.3332 7.99996C21.3332 5.05863 18.9412 2.66663 15.9998 2.66663C13.0585 2.66663 10.6665 5.05863 10.6665 7.99996C10.6665 10.4773 12.3718 12.548 14.6665 13.144V20L15.9998 22.6666ZM13.3332 7.99996C13.3332 6.52929 14.5292 5.33329 15.9998 5.33329C17.4705 5.33329 18.6665 6.52929 18.6665 7.99996C18.6665 9.47063 17.4705 10.6666 15.9998 10.6666C14.5292 10.6666 13.3332 9.47063 13.3332 7.99996Z" fill="#05595B"/>
<path d="M21.6892 14.084L20.9785 16.6546C24.4332 17.6093 26.6665 19.4453 26.6665 21.3333C26.6665 23.856 22.2865 26.6666 15.9998 26.6666C9.71317 26.6666 5.33317 23.856 5.33317 21.3333C5.33317 19.4453 7.5665 17.6093 11.0225 16.6533L10.3118 14.0826C5.59584 15.3866 2.6665 18.164 2.6665 21.3333C2.6665 25.8186 8.52384 29.3333 15.9998 29.3333C23.4758 29.3333 29.3332 25.8186 29.3332 21.3333C29.3332 18.164 26.4038 15.3866 21.6892 14.084Z" fill="#05595B"/>
</svg>
