<svg width="32" height="32" viewBox="0 0 32 32" fill="none" xmlns="http://www.w3.org/2000/svg">
<path d="M26.6665 5.33337H5.33317C3.8625 5.33337 2.6665 6.52937 2.6665 8.00004V24C2.6665 25.4707 3.8625 26.6667 5.33317 26.6667H26.6665C28.1372 26.6667 29.3332 25.4707 29.3332 24V8.00004C29.3332 6.52937 28.1372 5.33337 26.6665 5.33337ZM26.6665 8.00004V8.68137L15.9998 16.9787L5.33317 8.68271V8.00004H26.6665ZM5.33317 24V12.0587L15.1812 19.7187C15.4146 19.9021 15.7029 20.0018 15.9998 20.0018C16.2967 20.0018 16.585 19.9021 16.8185 19.7187L26.6665 12.0587L26.6692 24H5.33317Z" fill="#05595B"/>
</svg>
