<svg width="24" height="24" viewBox="0 0 24 24" fill="none" xmlns="http://www.w3.org/2000/svg">
<g clip-path="url(#clip0_150_188)">
<path d="M21.8152 13.925C21.4459 15.8011 20.5472 17.5323 19.2252 18.9138C17.9032 20.2953 16.2133 21.2695 14.3552 21.721C14.8652 21.119 15.3072 20.339 15.6742 19.454C16.0392 18.574 16.3442 17.553 16.5702 16.434C18.2472 16.002 19.7662 15.338 21.0402 14.489C21.3082 14.31 21.5672 14.122 21.8152 13.925ZM2.18522 13.925C2.43322 14.122 2.69222 14.31 2.96022 14.489C4.23322 15.338 5.75222 16.002 7.43022 16.434C7.65522 17.553 7.96022 18.574 8.32622 19.454C8.69222 20.338 9.13422 21.119 9.64422 21.721C7.78635 21.2693 6.09665 20.2951 4.77485 18.9136C3.45306 17.5321 2.55444 15.801 2.18522 13.925ZM14.4272 16.845C14.2715 17.4733 14.0707 18.0896 13.8262 18.689C13.4792 19.527 13.0972 20.144 12.7352 20.535C12.3652 20.935 12.1112 21 12.0002 21C11.8892 21 11.6362 20.935 11.2652 20.535C10.9032 20.145 10.5212 19.527 10.1742 18.689C9.92978 18.0896 9.72892 17.4733 9.57322 16.845C10.3612 16.947 11.1732 17 12.0002 17C12.8117 17.0005 13.6224 16.9487 14.4272 16.845ZM14.9632 10.729C15.0415 12.0755 14.9939 13.4263 14.8212 14.764C13.9242 14.918 12.9782 15 12.0002 15C11.0546 15.0011 10.1105 14.9221 9.17822 14.764C9.00304 13.4265 8.95582 12.0754 9.03722 10.729C9.98322 10.906 10.9772 11 12.0002 11C12.9941 11.0011 13.986 10.9104 14.9632 10.729ZM21.0662 7.77499C21.5262 8.76099 21.8312 9.83499 21.9462 10.964C21.4452 11.637 20.7692 12.266 19.9302 12.824C19.0602 13.404 18.0342 13.894 16.8912 14.261C17.0217 12.9164 17.0357 11.563 16.9332 10.216C17.8773 9.90215 18.7786 9.47183 19.6162 8.93499C20.1377 8.59852 20.6235 8.20985 21.0662 7.77499ZM2.93422 7.77499C3.36422 8.20199 3.85422 8.58999 4.38422 8.93499C5.22174 9.47201 6.12305 9.90234 7.06722 10.216C6.96505 11.563 6.97877 12.9163 7.10822 14.261C5.96522 13.894 4.93922 13.405 4.06922 12.825C3.23122 12.266 2.55522 11.637 2.05322 10.964C2.16922 9.83399 2.47322 8.76099 2.93322 7.77399L2.93422 7.77499ZM12.0002 2.99999C12.1102 2.99999 12.3642 3.06599 12.7352 3.46599C13.0972 3.85599 13.4792 4.47399 13.8262 5.31199C14.2162 6.25499 14.5402 7.41999 14.7482 8.73299C13.8862 8.90599 12.9632 8.99999 12.0002 8.99999C11.0773 9.00175 10.1565 8.91232 9.25122 8.73299C9.45922 7.41999 9.78322 6.25499 10.1742 5.31299C10.5212 4.47399 10.9032 3.85699 11.2642 3.46599C11.6362 3.06599 11.8892 2.99999 12.0002 2.99999ZM14.3552 2.27899C16.6089 2.82635 18.6025 4.13951 19.9952 5.99399C19.5692 6.48409 19.0744 6.90985 18.5262 7.25799C17.9467 7.63007 17.3292 7.93948 16.6842 8.18099C16.4532 6.81999 16.1042 5.58599 15.6742 4.54699C15.3072 3.66199 14.8662 2.88099 14.3552 2.27899ZM9.64522 2.27899C9.13522 2.88099 8.69322 3.66199 8.32622 4.54699C7.89622 5.58699 7.54622 6.81999 7.31622 8.18099C6.67124 7.93949 6.05377 7.63008 5.47422 7.25799C4.92573 6.90989 4.43058 6.48413 4.00422 5.99399C5.39718 4.13932 7.39117 2.82614 9.64522 2.27899Z" fill="#444444"/>
</g>
<defs>
<clipPath id="clip0_150_188">
<rect width="24" height="24" fill="white"/>
</clipPath>
</defs>
</svg>
