<svg width="40" height="40" viewBox="0 0 40 40" fill="none" xmlns="http://www.w3.org/2000/svg">
<path d="M23.8 16.8C26.4 16.8 28 13 28 10.6C28 8.6 27 6.2 25 6.2C22.4 6.2 20.8 10 20.8 12.4C20.8 14.4 21.8 16.8 23.8 16.8ZM16.2 16.8C18.2 16.8 19.2 14.4 19.2 12.4C19.2 9.8 17.6 6 15 6C13 6 12 8.4 12 10.4C11.8 13 13.4 16.8 16.2 16.8ZM31 14.8C28.4 14.8 26.6 18.4 26.6 21C26.6 22.8 27.4 24.6 29.2 24.6C31.8 24.6 33.6 21 33.6 18.4C33.6 16.6 32.6 14.8 31 14.8ZM13.6 21C13.6 18.4 11.6 14.8 9.20001 14.8C7.40001 14.8 6.60001 16.6 6.60001 18.4C6.60001 21 8.60001 24.6 11 24.6C12.8 24.6 13.6 22.8 13.6 21ZM20 20.6C16 20.6 10.6 27 10.6 31.4C10.6 33.4 12 34 13.6 34C16 34 17.8 32.4 20 32.4C22 32.4 23.8 34 26 34C27.6 34 29.4 33.6 29.4 31.4C29.4 27 24 20.6 20 20.6Z" fill="black"/>
</svg>
