<svg width="40" height="40" viewBox="0 0 40 40" fill="none" xmlns="http://www.w3.org/2000/svg">
<path d="M4 6.99996C3.99895 6.29148 4.24866 5.60549 4.70493 5.06349C5.16119 4.52148 5.79455 4.15844 6.49283 4.03867C7.19111 3.9189 7.90925 4.05012 8.52005 4.40909C9.13085 4.76807 9.5949 5.33163 9.83 5.99996H33C33.709 5.99897 34.3954 6.24911 34.9375 6.706C35.4796 7.16289 35.8424 7.79701 35.9615 8.49591C36.0806 9.1948 35.9484 9.9133 35.5882 10.524C35.2281 11.1347 34.6633 11.598 33.994 11.832L34 12V26C34 27.5913 33.3679 29.1174 32.2426 30.2426C31.1174 31.3678 29.5913 32 28 32H14C12.5238 32.0018 11.099 31.4576 10 30.472V34.5C10 34.8978 9.84197 35.2793 9.56066 35.5606C9.27936 35.8419 8.89783 36 8.5 36H5.5C5.10218 36 4.72065 35.8419 4.43934 35.5606C4.15804 35.2793 4 34.8978 4 34.5V6.99996ZM32 26V12H10V26C10 27.0608 10.4214 28.0782 11.1716 28.8284C11.9217 29.5785 12.9391 30 14 30H28C29.0609 30 30.0783 29.5785 30.8284 28.8284C31.5786 28.0782 32 27.0608 32 26ZM8 9.99996H33C33.2652 9.99996 33.5196 9.8946 33.7071 9.70707C33.8946 9.51953 34 9.26518 34 8.99996C34 8.73474 33.8946 8.48039 33.7071 8.29285C33.5196 8.10532 33.2652 7.99996 33 7.99996H8V6.99996C8 6.73474 7.89465 6.48039 7.70711 6.29285C7.51957 6.10532 7.26522 5.99996 7 5.99996C6.73479 5.99996 6.48043 6.10532 6.2929 6.29285C6.10536 6.48039 6 6.73474 6 6.99996V34H8V9.99996ZM15 19.91V25.01C15 25.2752 15.1054 25.5295 15.2929 25.7171C15.4804 25.9046 15.7348 26.01 16 26.01H18C18.2652 26.01 18.5196 25.9046 18.7071 25.7171C18.8946 25.5295 19 25.2752 19 25.01V23.01C19 22.7447 19.1054 22.4904 19.2929 22.3029C19.4804 22.1153 19.7348 22.01 20 22.01H22C22.2652 22.01 22.5196 22.1153 22.7071 22.3029C22.8946 22.4904 23 22.7447 23 23.01V25.01C23 25.2752 23.1054 25.5295 23.2929 25.7171C23.4804 25.9046 23.7348 26.01 24 26.01H26C26.2652 26.01 26.5196 25.9046 26.7071 25.7171C26.8946 25.5295 27 25.2752 27 25.01V19.91C27.0001 19.6273 26.9402 19.3478 26.8244 19.0899C26.7086 18.832 26.5394 18.6017 26.328 18.414L21.664 14.274C21.481 14.1114 21.2448 14.0217 21 14.0217C20.7553 14.0217 20.519 14.1114 20.336 14.274L15.672 18.414C15.4606 18.6017 15.2914 18.832 15.1756 19.0899C15.0598 19.3478 14.9999 19.6273 15 19.91Z" fill="black"/>
</svg>
