<svg width="60" height="60" viewBox="0 0 60 60" fill="none" xmlns="http://www.w3.org/2000/svg">
<path d="M13.9998 0L9.99984 22C9.41584 25.22 17.1278 26.724 16.9998 30L15.9998 56C15.8478 60 19.9998 60 19.9998 60C19.9998 60 24.1518 60 23.9998 56L22.9998 30C22.8758 26.728 29.9318 25.28 29.9998 22L25.9998 0H23.9998L24.9998 16L21.9998 18L20.9998 0H18.9998L17.9998 18L14.9998 16L15.9998 0H13.9998ZM47.9998 0C45.0558 0 40.1438 2.62 38.1798 6.548C36.5398 9.492 35.9998 16.072 35.9998 20V30C35.9998 33.272 40.3598 34 41.9998 34L39.9998 56C39.6398 59.984 43.9998 60 43.9998 60C43.9998 60 47.9998 60 47.9998 56V0Z" fill="black"/>
</svg>
