<svg width="120" height="20" viewBox="0 0 120 20" fill="none" xmlns="http://www.w3.org/2000/svg">
<path d="M9.99984 14.3917L15.1498 17.5L13.7832 11.6417L18.3332 7.7L12.3415 7.18334L9.99984 1.66667L7.65817 7.18334L1.6665 7.7L6.20817 11.6417L4.84984 17.5L9.99984 14.3917Z" fill="#52AB98"/>
<path d="M33.9998 14.3917L39.1498 17.5L37.7832 11.6417L42.3332 7.7L36.3415 7.18334L33.9998 1.66667L31.6582 7.18334L25.6665 7.7L30.2082 11.6417L28.8498 17.5L33.9998 14.3917Z" fill="#52AB98"/>
<path d="M57.9998 14.3917L63.1498 17.5L61.7832 11.6417L66.3332 7.7L60.3415 7.18334L57.9998 1.66667L55.6582 7.18334L49.6665 7.7L54.2082 11.6417L52.8498 17.5L57.9998 14.3917Z" fill="#52AB98"/>
<path d="M83.9998 14.3917L89.1498 17.5L87.7832 11.6417L92.3332 7.7L86.3415 7.18334L83.9998 1.66667L81.6582 7.18334L75.6665 7.7L80.2082 11.6417L78.8498 17.5L83.9998 14.3917Z" fill="#52AB98"/>
<path d="M110 14.3917L115.15 17.5L113.783 11.6417L118.333 7.7L112.342 7.18334L110 1.66667L107.658 7.18334L101.667 7.7L106.208 11.6417L104.85 17.5L110 14.3917Z" fill="#52AB98"/>
</svg>
