<svg width="70" height="50" viewBox="0 0 70 50" fill="none" xmlns="http://www.w3.org/2000/svg">
<rect width="70" height="50" rx="25" fill="#C8D8E4"/>
<path d="M40.8333 28.3333H39.5167L39.05 27.8833C40.7398 25.9234 41.6685 23.4212 41.6667 20.8333C41.6667 18.6907 41.0313 16.5962 39.8409 14.8147C38.6505 13.0331 36.9586 11.6446 34.9791 10.8246C32.9995 10.0047 30.8213 9.79015 28.7199 10.2082C26.6184 10.6262 24.6881 11.6579 23.173 13.173C21.6579 14.6881 20.6262 16.6184 20.2082 18.7199C19.7902 20.8213 20.0047 22.9995 20.8246 24.9791C21.6446 26.9586 23.0331 28.6505 24.8147 29.8409C26.5962 31.0313 28.6907 31.6667 30.8333 31.6667C33.5167 31.6667 35.9833 30.6833 37.8833 29.05L38.3333 29.5167V30.8333L46.6667 39.15L49.15 36.6667L40.8333 28.3333ZM30.8333 28.3333C26.6833 28.3333 23.3333 24.9833 23.3333 20.8333C23.3333 16.6833 26.6833 13.3333 30.8333 13.3333C34.9833 13.3333 38.3333 16.6833 38.3333 20.8333C38.3333 24.9833 34.9833 28.3333 30.8333 28.3333Z" fill="white"/>
</svg>
