<svg width="120" height="20" viewBox="0 0 120 20" fill="none" xmlns="http://www.w3.org/2000/svg">
<path d="M9.99999 14.3917L15.15 17.5001L13.7833 11.6417L18.3333 7.70008L12.3417 7.18341L9.99999 1.66675L7.65832 7.18341L1.66666 7.70008L6.20832 11.6417L4.84999 17.5001L9.99999 14.3917Z" fill="#52AB98"/>
<path d="M34 14.3917L39.15 17.5001L37.7833 11.6417L42.3333 7.70008L36.3417 7.18341L34 1.66675L31.6583 7.18341L25.6667 7.70008L30.2083 11.6417L28.85 17.5001L34 14.3917Z" fill="#52AB98"/>
<path d="M58 14.3917L63.15 17.5001L61.7833 11.6417L66.3333 7.70008L60.3417 7.18341L58 1.66675L55.6583 7.18341L49.6667 7.70008L54.2083 11.6417L52.85 17.5001L58 14.3917Z" fill="#52AB98"/>
<path d="M84 14.3917L89.15 17.5001L87.7833 11.6417L92.3333 7.70008L86.3417 7.18341L84 1.66675L81.6583 7.18341L75.6667 7.70008L80.2083 11.6417L78.85 17.5001L84 14.3917Z" fill="#52AB98"/>
<path d="M110 14.3917L115.15 17.5001L113.783 11.6417L118.333 7.70008L112.342 7.18341L110 1.66675L107.658 7.18341L101.667 7.70008L106.208 11.6417L104.85 17.5001L110 14.3917Z" fill="#52AB98"/>
</svg>
