<svg width="443" height="424" viewBox="0 0 443 424" fill="none" xmlns="http://www.w3.org/2000/svg">
<path d="M113.701 148.546L192.744 175.893L243.178 109.17L241.595 192.795L320.638 220.142L240.616 244.478L239.033 328.103L191.161 259.518L111.139 283.854L161.574 217.131L113.701 148.546Z" fill="#D9D9D9" fill-opacity="0.01"/>
<path d="M114.992 149.522L192.58 176.366L192.924 176.485L193.143 176.195L242.649 110.699L241.095 192.786L241.088 193.149L241.431 193.267L319.02 220.112L240.471 244L240.123 244.105L240.117 244.469L238.562 326.555L191.571 259.232L191.363 258.934L191.015 259.04L112.466 282.928L161.973 217.432L162.192 217.143L161.984 216.845L114.992 149.522Z" stroke="#52AB98" stroke-opacity="0.35"/>
<path d="M123.645 144.435L202.688 171.782L253.123 105.059L251.539 188.684L330.582 216.031L250.561 240.367L248.978 323.992L201.105 255.407L121.084 279.743L171.518 213.02L123.645 144.435Z" fill="#D9D9D9" fill-opacity="0.01"/>
<path d="M124.936 145.411L202.525 172.255L202.868 172.374L203.087 172.084L252.593 106.588L251.039 188.674L251.033 189.038L251.376 189.156L328.964 216L250.415 239.889L250.068 239.994L250.061 240.357L248.507 322.444L201.515 255.121L201.307 254.823L200.96 254.929L122.411 278.817L171.917 213.321L172.136 213.031L171.928 212.734L124.936 145.411Z" stroke="#52AB98" stroke-opacity="0.35"/>
<path d="M134.393 140.23L213.436 167.577L263.87 100.854L262.287 184.479L341.33 211.826L261.308 236.162L259.725 319.787L211.853 251.202L131.831 275.538L182.266 208.815L134.393 140.23Z" fill="#D9D9D9" fill-opacity="0.01"/>
<path d="M135.684 141.206L213.272 168.05L213.616 168.168L213.835 167.879L263.341 102.383L261.787 184.469L261.78 184.832L262.123 184.951L339.712 211.795L261.163 235.683L260.815 235.789L260.809 236.152L259.254 318.239L212.263 250.916L212.055 250.618L211.707 250.724L133.158 274.612L182.665 209.116L182.884 208.826L182.676 208.528L135.684 141.206Z" stroke="#52AB98" stroke-opacity="0.35"/>
<path d="M145.14 136.025L224.183 163.372L274.618 96.6487L273.034 180.274L352.077 207.621L272.056 231.957L270.473 315.582L222.6 246.997L142.579 271.333L193.013 204.609L145.14 136.025Z" fill="#D9D9D9" fill-opacity="0.01"/>
<path d="M146.431 137.001L224.02 163.845L224.363 163.963L224.582 163.674L274.088 98.1778L272.534 180.264L272.528 180.627L272.871 180.746L350.459 207.59L271.91 231.478L271.563 231.584L271.556 231.947L270.002 314.033L223.01 246.711L222.802 246.413L222.455 246.519L143.906 270.407L193.412 204.911L193.631 204.621L193.423 204.323L146.431 137.001Z" stroke="#52AB98" stroke-opacity="0.35"/>
</svg>
