<svg width="240" height="40" viewBox="0 0 240 40" fill="none" xmlns="http://www.w3.org/2000/svg">
<path d="M20 28.7833L30.3 34.9999L27.5667 23.2833L36.6667 15.3999L24.6833 14.3666L20 3.33325L15.3167 14.3666L3.33334 15.3999L12.4167 23.2833L9.70001 34.9999L20 28.7833Z" fill="#52AB98"/>
<path d="M70 28.7833L80.3 34.9999L77.5667 23.2833L86.6667 15.3999L74.6833 14.3666L70 3.33325L65.3167 14.3666L53.3333 15.3999L62.4167 23.2833L59.7 34.9999L70 28.7833Z" fill="#52AB98"/>
<path d="M120 28.7833L130.3 34.9999L127.567 23.2833L136.667 15.3999L124.683 14.3666L120 3.33325L115.317 14.3666L103.333 15.3999L112.417 23.2833L109.7 34.9999L120 28.7833Z" fill="#52AB98"/>
<path d="M170 28.7833L180.3 34.9999L177.567 23.2833L186.667 15.3999L174.683 14.3666L170 3.33325L165.317 14.3666L153.333 15.3999L162.417 23.2833L159.7 34.9999L170 28.7833Z" fill="#52AB98"/>
<path d="M220 28.7833L230.3 34.9999L227.567 23.2833L236.667 15.3999L224.683 14.3666L220 3.33325L215.317 14.3666L203.333 15.3999L212.417 23.2833L209.7 34.9999L220 28.7833Z" fill="#52AB98"/>
</svg>
