<svg width="40" height="40" viewBox="0 0 40 40" fill="none" xmlns="http://www.w3.org/2000/svg">
<path d="M10.9375 38.75H29.0575C29.3458 38.7504 29.6313 38.694 29.8977 38.5838C30.1641 38.4737 30.4061 38.312 30.6098 38.108C30.8136 37.904 30.975 37.6619 31.0849 37.3953C31.1947 37.1288 31.2508 36.8432 31.25 36.555V23.305L32.2725 23.8337C32.7305 24.0893 33.2708 24.1539 33.7761 24.0134C34.2813 23.873 34.7108 23.5389 34.9713 23.0837L38.4113 17.1212C38.5614 16.9021 38.6645 16.6542 38.714 16.3932C38.7634 16.1322 38.7583 15.8638 38.6988 15.605C38.637 15.3395 38.5217 15.0895 38.3598 14.8702C38.198 14.651 37.993 14.4671 37.7575 14.33H37.75L31.51 10.7312C30.6924 10.2597 29.7651 10.0118 28.8213 10.0125H11.1713C10.6572 10.012 10.1458 10.0852 9.65251 10.23C7.72969 10.9059 5.91563 11.8584 4.26751 13.0575L4.11126 13.16C3.5025 13.5674 2.88181 13.9567 2.25001 14.3275C1.7923 14.5917 1.4578 15.0264 1.31961 15.5366C1.18142 16.0467 1.25077 16.5908 1.51251 17.05L5.00001 23.0825C5.25546 23.5337 5.67759 23.8667 6.17584 24.0102C6.67408 24.1537 7.20872 24.0962 7.66501 23.85L8.75001 23.295V36.5575C8.74968 36.845 8.80601 37.1299 8.91576 37.3957C9.02551 37.6616 9.18655 37.9032 9.38968 38.1068C9.59281 38.3103 9.83405 38.4719 10.0996 38.5823C10.3652 38.6927 10.6499 38.7496 10.9375 38.75ZM28.75 36.25H11.25V23.75H28.75V36.25ZM29.985 20H10C9.80222 20.0001 9.6073 20.0473 9.43126 20.1375L6.93126 21.4225L3.93126 16.2375C4.40376 15.9525 4.88126 15.64 5.36876 15.325L5.63626 15.15C7.08439 14.0944 8.67259 13.2458 10.355 12.6287C10.62 12.5512 10.895 12.5125 11.1713 12.5125H12.5963C13.1963 16.0525 16.305 18.7375 20 18.7375C23.695 18.7375 26.8038 16.0512 27.405 12.5125H28.83C29.3338 12.5125 29.83 12.6437 30.2663 12.895L36.0475 16.2312L33.0475 21.42L30.575 20.14C30.3928 20.0456 30.1902 19.9975 29.985 20ZM19.7925 17.4837C18.3913 17.4368 17.0462 16.9216 15.9722 16.0205C14.8982 15.1193 14.1571 13.8842 13.8675 12.5125H15.1688C15.4556 13.6025 16.1026 14.5636 17.0046 15.2396C17.9067 15.9156 19.0107 16.2668 20.1375 16.2362C21.2182 16.206 22.2601 15.827 23.1076 15.1559C23.9552 14.4847 24.5629 13.5574 24.84 12.5125H26.1325C25.8284 13.954 25.0262 15.2424 23.8669 16.1514C22.7075 17.0605 21.265 17.5322 19.7925 17.4837ZM6.52126 21.625C6.5061 21.6308 6.49146 21.6379 6.47751 21.6462L6.52126 21.625Z" fill="black"/>
</svg>
