<svg width="773" height="882" viewBox="0 0 773 882" fill="none" xmlns="http://www.w3.org/2000/svg">
    <path d="M175.871 289.561c-3.498-6.858 1.739-14.93 9.427-14.531l492.97 25.615c7.687.4 12.059 8.971 7.87 15.429L417.47 730.191c-4.19 6.458-13.8 5.959-17.297-.899L175.871 289.561z" fill="#D9D9D9" fill-opacity=".01"/>
    <path d="M176.762 289.106c-3.148-6.171 1.565-13.437 8.484-13.077l492.97 25.615c6.918.359 10.854 8.074 7.083 13.886L416.631 729.647c-3.771 5.812-12.42 5.362-15.568-.809L176.762 289.106z" stroke="#C8D8E4" stroke-opacity=".26" stroke-width="2"/>
    <path d="M173.995 308.489c-3.498-6.858 1.739-14.93 9.427-14.531l493.363 25.636c7.688.399 12.06 8.971 7.871 15.429L415.773 749.471c-4.19 6.458-13.799 5.958-17.297-.899L173.995 308.489z" fill="#D9D9D9" fill-opacity=".01"/>
    <path d="M174.886 308.034c-3.148-6.171 1.565-13.436 8.484-13.077l493.364 25.636c6.918.359 10.854 8.074 7.083 13.886L414.934 748.926c-3.771 5.813-12.419 5.363-15.567-.809L174.886 308.034z" stroke="#C8D8E4" stroke-opacity=".26" stroke-width="2"/>
    <path d="M175.995 271.489c-3.498-6.858 1.739-14.93 9.427-14.531l493.363 25.636c7.688.399 12.06 8.971 7.871 15.429L417.773 712.471c-4.19 6.458-13.799 5.958-17.297-.899L175.995 271.489z" fill="#D9D9D9" fill-opacity=".01"/>
    <path d="M176.886 271.034c-3.148-6.171 1.565-13.436 8.484-13.077l493.364 25.636c6.918.359 10.854 8.074 7.083 13.886L416.934 711.926c-3.771 5.813-12.419 5.363-15.567-.809L176.886 271.034z" stroke="#C8D8E4" stroke-opacity=".26" stroke-width="2"/>
</svg>
