<svg width="198" height="18" viewBox="0 0 198 18" fill="none" xmlns="http://www.w3.org/2000/svg">
<path d="M7.536 18V3.912H0.48V0.719999H17.76V3.912H10.728V18H7.536ZM35.7309 18L30.5229 11.784H34.6749L39.1869 17.112V18H35.7309ZM21.9549 18V0.743999H35.8749C36.4829 0.743999 37.0429 0.895999 37.5549 1.2C38.0669 1.504 38.4749 1.912 38.7789 2.424C39.0829 2.92 39.2349 3.472 39.2349 4.08V8.736C39.2349 9.344 39.0829 9.904 38.7789 10.416C38.4749 10.928 38.0669 11.336 37.5549 11.64C37.0429 11.928 36.4829 12.072 35.8749 12.072L25.1229 12.096V18H21.9549ZM25.4109 8.88H35.7309C35.8109 8.88 35.8829 8.856 35.9469 8.808C36.0109 8.76 36.0429 8.696 36.0429 8.616V4.2C36.0429 4.12 36.0109 4.056 35.9469 4.008C35.8829 3.944 35.8109 3.912 35.7309 3.912H25.4109C25.3309 3.912 25.2589 3.944 25.1949 4.008C25.1469 4.056 25.1229 4.12 25.1229 4.2V8.616C25.1229 8.696 25.1469 8.76 25.1949 8.808C25.2589 8.856 25.3309 8.88 25.4109 8.88ZM47.4476 18C46.8396 18 46.2796 17.848 45.7676 17.544C45.2716 17.24 44.8716 16.84 44.5676 16.344C44.2636 15.832 44.1116 15.272 44.1116 14.664V0.719999H47.2796V14.52C47.2796 14.6 47.3036 14.672 47.3516 14.736C47.4156 14.784 47.4876 14.808 47.5676 14.808H57.8876C57.9676 14.808 58.0396 14.784 58.1036 14.736C58.1676 14.672 58.1996 14.6 58.1996 14.52V0.719999H61.3916V14.664C61.3916 15.272 61.2396 15.832 60.9356 16.344C60.6316 16.84 60.2236 17.24 59.7116 17.544C59.2156 17.848 58.6636 18 58.0556 18H47.4476ZM69.6986 18C69.0906 18 68.5306 17.848 68.0186 17.544C67.5226 17.24 67.1226 16.84 66.8186 16.344C66.5146 15.832 66.3626 15.272 66.3626 14.664V13.344H69.5306V14.52C69.5306 14.6 69.5546 14.672 69.6026 14.736C69.6666 14.784 69.7386 14.808 69.8186 14.808H80.1626C80.2426 14.808 80.3066 14.784 80.3546 14.736C80.4186 14.672 80.4506 14.6 80.4506 14.52V11.232C80.4506 11.152 80.4186 11.088 80.3546 11.04C80.3066 10.992 80.2426 10.968 80.1626 10.968H69.6986C69.0906 10.968 68.5306 10.816 68.0186 10.512C67.5226 10.208 67.1226 9.808 66.8186 9.312C66.5146 8.8 66.3626 8.232 66.3626 7.608V4.056C66.3626 3.448 66.5146 2.896 66.8186 2.4C67.1226 1.888 67.5226 1.48 68.0186 1.176C68.5306 0.871999 69.0906 0.719999 69.6986 0.719999H80.3066C80.9146 0.719999 81.4666 0.871999 81.9626 1.176C82.4746 1.48 82.8826 1.888 83.1866 2.4C83.4906 2.896 83.6426 3.448 83.6426 4.056V5.376H80.4506V4.2C80.4506 4.12 80.4186 4.056 80.3546 4.008C80.3066 3.944 80.2426 3.912 80.1626 3.912H69.8186C69.7386 3.912 69.6666 3.944 69.6026 4.008C69.5546 4.056 69.5306 4.12 69.5306 4.2V7.488C69.5306 7.568 69.5546 7.632 69.6026 7.68C69.6666 7.728 69.7386 7.752 69.8186 7.752H80.3066C80.9146 7.752 81.4666 7.904 81.9626 8.208C82.4746 8.512 82.8826 8.92 83.1866 9.432C83.4906 9.928 83.6426 10.488 83.6426 11.112V14.664C83.6426 15.272 83.4906 15.832 83.1866 16.344C82.8826 16.84 82.4746 17.24 81.9626 17.544C81.4666 17.848 80.9146 18 80.3066 18H69.6986ZM94.8547 18V3.912H87.7987V0.719999H105.079V3.912H98.0467V18H94.8547Z" fill="#52AB98"/>
<path d="M109.274 18V0.743999H123.674C124.202 0.743999 124.682 0.879999 125.114 1.152C125.562 1.408 125.914 1.752 126.17 2.184C126.426 2.616 126.554 3.096 126.554 3.624V8.688C126.554 9.216 126.426 9.696 126.17 10.128C125.914 10.56 125.562 10.912 125.114 11.184C124.682 11.44 124.202 11.568 123.674 11.568H111.218V18H109.274ZM112.154 9.6H123.674C123.93 9.6 124.146 9.512 124.322 9.336C124.514 9.16 124.61 8.944 124.61 8.688V3.624C124.61 3.368 124.514 3.152 124.322 2.976C124.146 2.784 123.93 2.688 123.674 2.688H112.154C111.898 2.688 111.674 2.784 111.482 2.976C111.306 3.152 111.218 3.368 111.218 3.624V8.688C111.218 8.944 111.306 9.16 111.482 9.336C111.674 9.512 111.898 9.6 112.154 9.6ZM130.898 18V0.719999H132.866V18H130.898ZM138.215 18V0.696H140.159V16.056H155.495V18H138.215ZM162.126 18C161.598 18 161.11 17.872 160.662 17.616C160.23 17.36 159.886 17.016 159.63 16.584C159.374 16.136 159.246 15.648 159.246 15.12V3.6C159.246 3.072 159.374 2.592 159.63 2.16C159.886 1.712 160.23 1.36 160.662 1.104C161.11 0.847999 161.598 0.719999 162.126 0.719999H173.646C174.174 0.719999 174.654 0.847999 175.086 1.104C175.534 1.36 175.886 1.712 176.142 2.16C176.398 2.592 176.526 3.072 176.526 3.6V15.12C176.526 15.648 176.398 16.136 176.142 16.584C175.886 17.016 175.534 17.36 175.086 17.616C174.654 17.872 174.174 18 173.646 18H162.126ZM162.126 16.056H173.646C173.902 16.056 174.118 15.968 174.294 15.792C174.486 15.6 174.582 15.376 174.582 15.12V3.6C174.582 3.344 174.486 3.128 174.294 2.952C174.118 2.76 173.902 2.664 173.646 2.664H162.126C161.87 2.664 161.646 2.76 161.454 2.952C161.278 3.128 161.19 3.344 161.19 3.6V15.12C161.19 15.376 161.278 15.6 161.454 15.792C161.646 15.968 161.87 16.056 162.126 16.056ZM188.385 18V2.664H180.705V0.719999H197.985V2.664H190.329V18H188.385Z" fill="black"/>
</svg>
