<svg width="28" height="28" viewBox="0 0 28 28" fill="none" xmlns="http://www.w3.org/2000/svg">
<path d="M26.2033 6.99984C25.305 7.40817 24.3367 7.6765 23.3333 7.80484C24.36 7.1865 25.1533 6.2065 25.5267 5.02817C24.5583 5.6115 23.485 6.01984 22.3533 6.25317C21.4317 5.24984 20.1367 4.6665 18.6667 4.6665C15.925 4.6665 13.685 6.9065 13.685 9.6715C13.685 10.0682 13.7317 10.4532 13.8133 10.8148C9.65999 10.6048 5.96166 8.60984 3.49999 5.58817C3.06833 6.32317 2.82333 7.1865 2.82333 8.0965C2.82333 9.83484 3.69833 11.3748 5.05166 12.2498C4.22333 12.2498 3.45333 12.0165 2.77666 11.6665V11.7015C2.77666 14.1282 4.50333 16.1582 6.78999 16.6132C6.05584 16.8141 5.28511 16.842 4.53833 16.6948C4.8552 17.6894 5.47579 18.5596 6.31285 19.1833C7.14991 19.8069 8.16135 20.1525 9.20499 20.1715C7.4359 21.572 5.24299 22.329 2.98666 22.3182C2.58999 22.3182 2.19333 22.2948 1.79666 22.2482C4.01333 23.6715 6.64999 24.4998 9.47333 24.4998C18.6667 24.4998 23.7183 16.8698 23.7183 10.2548C23.7183 10.0332 23.7183 9.82317 23.7067 9.6015C24.6867 8.9015 25.5267 8.01484 26.2033 6.99984Z" fill="#52AB98"/>
</svg>
