<svg width="292" height="272" viewBox="0 0 292 272" fill="none" xmlns="http://www.w3.org/2000/svg">
<ellipse cx="135.937" cy="97.6155" rx="122.5" ry="63" transform="rotate(-17.9082 135.937 97.6155)" fill="#D9D9D9" fill-opacity="0.01"/>
<path d="M252.026 60.1014C257.288 76.3853 249.247 95.3984 231.705 113.017C214.183 130.615 187.284 146.705 155.155 157.087C123.026 167.47 91.7983 170.163 67.2921 166.147C42.7569 162.125 25.1099 151.413 19.8478 135.13C14.5857 118.846 22.6271 99.8326 40.1693 82.2141C57.6909 64.6163 84.5899 48.526 116.719 38.1436C148.847 27.7612 180.076 25.0678 204.582 29.0843C229.117 33.1056 246.764 43.8176 252.026 60.1014Z" stroke="#04DA8D" stroke-opacity="0.45"/>
<ellipse cx="142.087" cy="116.647" rx="122.5" ry="63" transform="rotate(-17.9082 142.087 116.647)" fill="#D9D9D9" fill-opacity="0.01"/>
<path d="M258.176 79.1324C263.438 95.4163 255.397 114.429 237.854 132.048C220.333 149.646 193.434 165.736 161.305 176.118C129.176 186.501 97.9482 189.194 73.4419 185.178C48.9068 181.156 31.2598 170.444 25.9977 154.161C20.7355 137.877 28.7769 118.864 46.3192 101.245C63.8408 83.6473 90.7397 67.557 122.869 57.1746C154.997 46.7922 186.225 44.0988 210.732 48.1154C235.267 52.1366 252.914 62.8486 258.176 79.1324Z" stroke="#04DA8D" stroke-opacity="0.45"/>
<ellipse cx="148.237" cy="135.678" rx="122.5" ry="63" transform="rotate(-17.9082 148.237 135.678)" fill="#D9D9D9" fill-opacity="0.01"/>
<path d="M264.326 98.1634C269.588 114.447 261.547 133.46 244.004 151.079C226.483 168.677 199.584 184.767 167.455 195.149C135.326 205.532 104.098 208.225 79.5918 204.209C55.0567 200.187 37.4096 189.475 32.1475 173.192C26.8854 156.908 34.9268 137.895 52.469 120.276C69.9906 102.678 96.8896 86.588 129.018 76.2056C161.147 65.8233 192.375 63.1298 216.882 67.1464C241.417 71.1676 259.064 81.8796 264.326 98.1634Z" stroke="#04DA8D" stroke-opacity="0.45"/>
<ellipse cx="154.387" cy="154.709" rx="122.5" ry="63" transform="rotate(-17.9082 154.387 154.709)" fill="#D9D9D9" fill-opacity="0.01"/>
<path d="M270.476 117.194C275.738 133.478 267.696 152.491 250.154 170.11C232.633 187.708 205.734 203.798 173.605 214.18C141.476 224.563 110.248 227.256 85.7416 223.24C61.2065 219.218 43.5595 208.506 38.2974 192.223C33.0353 175.939 41.0766 156.926 58.6189 139.307C76.1405 121.709 103.039 105.619 135.168 95.2366C167.297 84.8543 198.525 82.1608 223.031 86.1774C247.567 90.1986 265.214 100.911 270.476 117.194Z" stroke="#04DA8D" stroke-opacity="0.45"/>
<ellipse cx="160.536" cy="173.74" rx="122.5" ry="63" transform="rotate(-17.9082 160.536 173.74)" fill="#D9D9D9" fill-opacity="0.01"/>
<path d="M276.626 136.225C281.888 152.509 273.846 171.522 256.304 189.141C238.782 206.739 211.883 222.829 179.755 233.211C147.626 243.594 116.398 246.287 91.8915 242.271C67.3563 238.249 49.7093 227.537 44.4472 211.254C39.1851 194.97 47.2265 175.957 64.7687 158.338C82.2903 140.74 109.189 124.65 141.318 114.268C173.447 103.885 204.675 101.192 229.181 105.208C253.716 109.23 271.363 119.942 276.626 136.225Z" stroke="#04DA8D" stroke-opacity="0.45"/>
</svg>
