<svg width="32" height="32" viewBox="0 0 32 32" fill="none" xmlns="http://www.w3.org/2000/svg">
<path d="M15.9998 2.66663C8.64784 2.66663 2.6665 8.64796 2.6665 16C2.6665 23.352 8.64784 29.3333 15.9998 29.3333C23.3518 29.3333 29.3332 23.352 29.3332 16C29.3332 8.64796 23.3518 2.66663 15.9998 2.66663ZM5.33317 16C5.33317 14.8013 5.54117 13.6506 5.90784 12.5746L7.99984 14.6666L10.6665 17.3333V20L13.3332 22.6666L14.6665 24V26.5746C9.4145 25.9146 5.33317 21.4293 5.33317 16ZM24.4398 22.4973C23.5692 21.796 22.2492 21.3333 21.3332 21.3333V20C21.3332 19.2927 21.0522 18.6144 20.5521 18.1143C20.052 17.6142 19.3737 17.3333 18.6665 17.3333H13.3332V13.3333C14.0404 13.3333 14.7187 13.0523 15.2188 12.5522C15.7189 12.0521 15.9998 11.3739 15.9998 10.6666V9.33329H17.3332C18.0404 9.33329 18.7187 9.05234 19.2188 8.55224C19.7189 8.05215 19.9998 7.37387 19.9998 6.66663V6.11863C23.9038 7.70396 26.6665 11.5333 26.6665 16C26.6663 18.3529 25.8829 20.6388 24.4398 22.4973Z" fill="#05595B"/>
</svg>
