<svg width="50" height="50" viewBox="0 0 50 50" fill="none" xmlns="http://www.w3.org/2000/svg">
<path d="M28.5714 37.5H21.4287V30.3571H28.5715L28.5714 37.5ZM35.7143 31.4056L31.6198 27.3088C31.4542 27.1427 31.2574 27.011 31.0407 26.9212C30.824 26.8315 30.5917 26.7854 30.3571 26.7857H19.6429C18.6565 26.7857 17.8571 27.5852 17.8571 28.5714V39.2857C17.8571 39.7506 18.0348 40.1738 18.3257 40.4915L22.478 44.6429H16.0713C15.0851 44.6429 14.2856 43.8434 14.2856 42.8571V25C14.2856 24.0137 15.0851 23.2143 16.0713 23.2143H33.9287C34.9149 23.2143 35.7144 24.0138 35.7144 25V31.4056H35.7143ZM46.4287 37.5L42.8572 33.9286L42.8618 26.781L46.4287 23.2142V37.5ZM26.7816 9.40917C24.4062 10.7788 24.4062 14.2212 26.7816 15.5908C29.1572 16.9603 32.1429 15.2391 32.1429 12.5C32.1429 9.76093 29.1572 8.03964 26.7816 9.40917ZM46.4287 19.6429L39.2858 26.7857V23.2143C39.2858 21.5053 38.0852 20.0775 36.4816 19.7264C38.2232 17.8211 39.2858 15.2848 39.2858 12.5001C39.2858 6.58271 34.489 1.78574 28.5715 1.78574C22.9285 1.78574 18.3045 6.14833 17.8879 11.6849C15.9887 9.97177 13.4734 8.92861 10.7144 8.92861C4.79697 8.92861 0 13.7255 0 19.643C0 25.5602 4.79697 30.3571 10.7143 30.3571H7.14287V37.5H10.7143V44.6429C10.7143 46.6153 12.3132 48.2142 14.2857 48.2142H35.7143C37.6868 48.2142 39.2857 46.6153 39.2857 44.6429V41.0713L46.4286 48.2142H50V19.6429H46.4286H46.4287ZM14.2857 19.6429C14.2857 16.9038 11.3429 15.2595 8.92451 16.552C6.25635 17.9783 6.43105 22.9388 10.7144 23.2143V26.7855C2.8335 26.5342 1.23701 16.7969 7.13477 13.4614C11.9084 10.7616 17.8571 14.1647 17.8571 19.643H14.2856L14.2857 19.6429ZM24.9921 18.6815C20.2409 15.9425 20.2409 9.05751 24.9921 6.31845C29.7432 3.57929 35.7144 7.02177 35.7144 12.5C35.7144 17.9782 29.7432 21.4207 24.992 18.6816L24.9921 18.6815Z" fill="#52AB98"/>
</svg>
