<svg width="50" height="50" viewBox="0 0 50 50" fill="none" xmlns="http://www.w3.org/2000/svg">
<path d="M16.0832 34.2833L19.7519 33.225L41.8415 10.8708C42.0157 10.6923 42.1128 10.4524 42.1116 10.2029C42.1104 9.95342 42.0112 9.71441 41.8353 9.53751L40.5123 8.20001C40.4268 8.11217 40.3247 8.04223 40.2119 7.99429C40.0991 7.94635 39.9779 7.92136 39.8553 7.92078C39.7327 7.92019 39.6113 7.94403 39.498 7.9909C39.3848 8.03777 39.282 8.10673 39.1957 8.19376L17.1644 30.4896L16.0811 34.2813L16.0832 34.2833ZM43.1311 5.55001L44.454 6.88959C46.279 8.73751 46.2957 11.7188 44.4873 13.5479L21.7248 36.5854L13.8832 38.8438C13.4044 38.9778 12.892 38.9164 12.4585 38.673C12.025 38.4297 11.7057 38.0243 11.5707 37.5458C11.4702 37.2018 11.4688 36.8365 11.5665 36.4917L13.8478 28.4917L36.5498 5.51459C36.9815 5.07992 37.4954 4.73555 38.0616 4.50157C38.6278 4.26759 39.2348 4.14869 39.8474 4.15179C40.46 4.1549 41.0659 4.27994 41.6297 4.51964C42.1934 4.75935 42.7038 5.11098 43.1311 5.55001ZM19.1332 7.95209C20.1665 7.95209 21.004 8.80001 21.004 9.84584C21.0056 10.0931 20.9585 10.3382 20.8654 10.5672C20.7722 10.7962 20.6349 11.0046 20.4611 11.1805C20.2874 11.3564 20.0806 11.4963 19.8528 11.5922C19.6249 11.6881 19.3804 11.7382 19.1332 11.7396H11.6498C9.58317 11.7396 7.90817 13.4354 7.90817 15.525V38.2458C7.90817 40.3375 9.58317 42.0333 11.6498 42.0333H34.0998C36.1665 42.0333 37.8436 40.3375 37.8436 38.2458V30.6729C37.8436 29.6271 38.6811 28.7792 39.7144 28.7792C40.7478 28.7792 41.5853 29.6271 41.5853 30.675V38.2458C41.5853 42.4292 38.2332 45.8208 34.0998 45.8208H11.6498C7.5165 45.8208 4.1665 42.4292 4.1665 38.2458V15.525C4.1665 11.3438 7.5165 7.95209 11.6498 7.95209H19.1332Z" fill="#52AB98"/>
</svg>
