<svg width="25" height="25" viewBox="0 0 25 25" fill="none" xmlns="http://www.w3.org/2000/svg">
<path d="M5.28125 4.68752L5.63281 5.38283L6.0625 6.25002H9.375V10.1563H3.125V4.68752H5.28125ZM5.76563 3.12502H2.34375C2.13655 3.12502 1.93784 3.20733 1.79132 3.35384C1.64481 3.50035 1.5625 3.69907 1.5625 3.90627V10.9375C1.5625 11.1447 1.64481 11.3434 1.79132 11.4899C1.93784 11.6365 2.13655 11.7188 2.34375 11.7188H10.1562C10.3635 11.7188 10.5622 11.6365 10.7087 11.4899C10.8552 11.3434 10.9375 11.1447 10.9375 10.9375V5.46877C10.9375 5.26157 10.8552 5.06285 10.7087 4.91634C10.5622 4.76983 10.3635 4.68752 10.1562 4.68752H7.03125L6.46875 3.55471C6.40323 3.42468 6.30268 3.31555 6.17844 3.23962C6.05421 3.1637 5.91122 3.12401 5.76563 3.12502ZM17.7813 4.68752L18.1328 5.38283L18.5625 6.25002H21.875V10.1563H15.625V4.68752H17.7813ZM18.2656 3.12502H14.8438C14.6365 3.12502 14.4378 3.20733 14.2913 3.35384C14.1448 3.50035 14.0625 3.69907 14.0625 3.90627V10.9375C14.0625 11.1447 14.1448 11.3434 14.2913 11.4899C14.4378 11.6365 14.6365 11.7188 14.8438 11.7188H22.6562C22.8635 11.7188 23.0622 11.6365 23.2087 11.4899C23.3552 11.3434 23.4375 11.1447 23.4375 10.9375V5.46877C23.4375 5.26157 23.3552 5.06285 23.2087 4.91634C23.0622 4.76983 22.8635 4.68752 22.6562 4.68752H19.5312L18.9688 3.55471C18.9032 3.42468 18.8027 3.31555 18.6784 3.23962C18.5542 3.1637 18.4112 3.12401 18.2656 3.12502ZM5.28125 14.8438L5.63281 15.5391L6.0625 16.4063H9.375V20.3125H3.125V14.8438H5.28125ZM5.76563 13.2813H2.34375C2.13655 13.2813 1.93784 13.3636 1.79132 13.5101C1.64481 13.6566 1.5625 13.8553 1.5625 14.0625V21.0938C1.5625 21.301 1.64481 21.4997 1.79132 21.6462C1.93784 21.7927 2.13655 21.875 2.34375 21.875H10.1562C10.3635 21.875 10.5622 21.7927 10.7087 21.6462C10.8552 21.4997 10.9375 21.301 10.9375 21.0938V15.625C10.9375 15.4178 10.8552 15.2191 10.7087 15.0726C10.5622 14.9261 10.3635 14.8438 10.1562 14.8438H7.03125L6.46875 13.711C6.40323 13.5809 6.30268 13.4718 6.17844 13.3959C6.05421 13.3199 5.91122 13.2803 5.76563 13.2813ZM17.7813 14.8438L18.1328 15.5391L18.5625 16.4063H21.875V20.3125H15.625V14.8438H17.7813ZM18.2656 13.2813H14.8438C14.6365 13.2813 14.4378 13.3636 14.2913 13.5101C14.1448 13.6566 14.0625 13.8553 14.0625 14.0625V21.0938C14.0625 21.301 14.1448 21.4997 14.2913 21.6462C14.4378 21.7927 14.6365 21.875 14.8438 21.875H22.6562C22.8635 21.875 23.0622 21.7927 23.2087 21.6462C23.3552 21.4997 23.4375 21.301 23.4375 21.0938V15.625C23.4375 15.4178 23.3552 15.2191 23.2087 15.0726C23.0622 14.9261 22.8635 14.8438 22.6562 14.8438H19.5312L18.9688 13.711C18.9032 13.5809 18.8027 13.4718 18.6784 13.3959C18.5542 13.3199 18.4112 13.2803 18.2656 13.2813Z" fill="#52AB98"/>
</svg>
