<svg width="25" height="25" viewBox="0 0 25 25" fill="none" xmlns="http://www.w3.org/2000/svg">
<path d="M12.5 14.0625C13.3629 14.0625 14.0625 13.3629 14.0625 12.5C14.0625 11.6371 13.3629 10.9375 12.5 10.9375C11.6371 10.9375 10.9375 11.6371 10.9375 12.5C10.9375 13.3629 11.6371 14.0625 12.5 14.0625Z" fill="white"/>
<path d="M23.4375 13.2812V11.7188H18.6172L20.6328 9.69531L19.5312 8.59375L15.625 12.5L19.5312 16.4062L20.6328 15.3047L18.6172 13.2812H23.4375ZM11.7188 18.6172V23.4375H13.2812V18.6172L15.3047 20.6328L16.4062 19.5312L12.5 15.625L8.59375 19.5312L9.69531 20.6328L11.7188 18.6172ZM5.46875 8.59375L4.36719 9.69531L6.38281 11.7188H1.5625V13.2812H6.38281L4.36719 15.3047L5.46875 16.4062L9.375 12.5L5.46875 8.59375ZM13.2812 6.38281V1.5625H11.7188V6.38281L9.69531 4.36719L8.59375 5.46875L12.5 9.375L16.4062 5.46875L15.3047 4.36719L13.2812 6.38281Z" fill="white"/>
</svg>
