<svg width="25" height="25" viewBox="0 0 25 25" fill="none" xmlns="http://www.w3.org/2000/svg">
<path d="M19.3751 5.00014C19.1289 5.00014 18.8851 5.04864 18.6576 5.14286C18.4301 5.23709 18.2234 5.3752 18.0493 5.54931C17.8752 5.72342 17.7371 5.93012 17.6429 6.15761C17.5486 6.38509 17.5001 6.62891 17.5001 6.87514C17.5001 7.12137 17.5486 7.36518 17.6429 7.59267C17.7371 7.82016 17.8752 8.02685 18.0493 8.20096C18.2234 8.37507 18.4301 8.51319 18.6576 8.60741C18.8851 8.70164 19.1289 8.75014 19.3751 8.75014C19.8724 8.75014 20.3493 8.55259 20.701 8.20096C21.0526 7.84933 21.2501 7.37242 21.2501 6.87514C21.2501 6.37786 21.0526 5.90094 20.701 5.54931C20.3493 5.19768 19.8724 5.00014 19.3751 5.00014ZM16.2501 6.87514C16.2503 6.20554 16.4656 5.55371 16.8642 5.01569C17.2628 4.47766 17.8236 4.0819 18.4642 3.8867C19.1047 3.69151 19.7909 3.70721 20.4219 3.93149C21.0528 4.15578 21.595 4.57678 21.9685 5.13247C22.3421 5.68817 22.5273 6.34916 22.4969 7.01806C22.4664 7.68696 22.222 8.3284 21.7994 8.84786C21.3769 9.36732 20.7987 9.73733 20.1501 9.90337C19.5014 10.0694 18.8165 10.0227 18.1964 9.77014L16.5939 12.1739C16.8986 12.4817 17.136 12.8496 17.291 13.2541C17.446 13.6585 17.5152 14.0908 17.4942 14.5235C17.4733 14.9561 17.3626 15.3797 17.1692 15.7673C16.9759 16.1549 16.704 16.498 16.371 16.775C16.0379 17.052 15.651 17.2567 15.2346 17.3761C14.8182 17.4955 14.3816 17.5271 13.9524 17.4688C13.5232 17.4105 13.1107 17.2637 12.7413 17.0375C12.3719 16.8114 12.0535 16.5109 11.8064 16.1551L8.68638 17.4926C8.84303 18.2511 8.71249 19.0406 8.32007 19.7083C7.92765 20.3759 7.30131 20.8741 6.56247 21.1061C5.82363 21.3382 5.02494 21.2877 4.32124 20.9644C3.61754 20.641 3.05897 20.0679 2.75381 19.3561C2.44865 18.6444 2.41866 17.8446 2.66964 17.112C2.92061 16.3794 3.43469 15.766 4.11219 15.3909C4.78969 15.0157 5.58235 14.9055 6.3365 15.0816C7.09064 15.2577 7.75254 15.7075 8.19388 16.3439L11.3139 15.0064C11.199 14.4516 11.237 13.8761 11.424 13.3413C11.611 12.8065 11.9398 12.3326 12.3753 11.9702C12.8108 11.6079 13.3366 11.3708 13.8965 11.2842C14.4564 11.1977 15.0293 11.265 15.5539 11.4789L17.1564 9.07639C16.5748 8.49155 16.2489 7.69993 16.2501 6.87514ZM12.5001 14.3751C12.5001 14.8724 12.6977 15.3493 13.0493 15.701C13.4009 16.0526 13.8778 16.2501 14.3751 16.2501C14.8724 16.2501 15.3493 16.0526 15.701 15.701C16.0526 15.3493 16.2501 14.8724 16.2501 14.3751C16.2501 13.8779 16.0526 13.4009 15.701 13.0493C15.3493 12.6977 14.8724 12.5001 14.3751 12.5001C13.8778 12.5001 13.4009 12.6977 13.0493 13.0493C12.6977 13.4009 12.5001 13.8779 12.5001 14.3751ZM3.75013 18.1251C3.75013 18.6224 3.94767 19.0993 4.2993 19.451C4.65093 19.8026 5.12785 20.0001 5.62513 20.0001C6.12241 20.0001 6.59932 19.8026 6.95095 19.451C7.30258 19.0993 7.50013 18.6224 7.50013 18.1251C7.50013 17.6279 7.30258 17.1509 6.95095 16.7993C6.59932 16.4477 6.12241 16.2501 5.62513 16.2501C5.12785 16.2501 4.65093 16.4477 4.2993 16.7993C3.94767 17.1509 3.75013 17.6279 3.75013 18.1251Z" fill="#52AB98"/>
</svg>
