<svg width="24" height="25" viewBox="0 0 24 25" fill="none" xmlns="http://www.w3.org/2000/svg">
<g clip-path="url(#clip0_188_568)">
<path d="M22 3.12488H18.75V1.68257C18.7501 1.49131 18.6712 1.30783 18.5307 1.1725C18.3901 1.03717 18.1994 0.961065 18.0005 0.960938C17.8016 0.96081 17.6108 1.03667 17.47 1.17182C17.3293 1.30697 17.2501 1.49035 17.25 1.68161V3.12488H12.75V1.68257C12.7501 1.58787 12.7307 1.49408 12.6931 1.40656C12.6555 1.31904 12.6003 1.23951 12.5307 1.1725C12.4611 1.10549 12.3784 1.05232 12.2875 1.01602C12.1965 0.979717 12.099 0.961001 12.0005 0.960938C11.8016 0.96081 11.6108 1.03667 11.47 1.17182C11.3293 1.30697 11.2501 1.49035 11.25 1.68161V3.12488H6.75V1.68257C6.75007 1.58787 6.73073 1.49408 6.6931 1.40656C6.65547 1.31904 6.60028 1.23951 6.53068 1.1725C6.46109 1.10549 6.37844 1.05232 6.28747 1.01602C6.19651 0.979717 6.09899 0.961001 6.0005 0.960938C5.80159 0.96081 5.61077 1.03667 5.47002 1.17182C5.32928 1.30697 5.25013 1.49035 5.25 1.68161V3.12488H2C1.46974 3.12488 0.961184 3.32736 0.58614 3.6878C0.211096 4.04824 0.00026513 4.53713 0 5.047V22.1143C0 22.6243 0.210714 23.1135 0.585786 23.4741C0.960859 23.8348 1.46957 24.0374 2 24.0374H22C22.5304 24.0374 23.0391 23.8348 23.4142 23.4741C23.7893 23.1135 24 22.6243 24 22.1143V5.047C23.9997 4.53713 23.7889 4.04824 23.4139 3.6878C23.0388 3.32736 22.5303 3.12488 22 3.12488ZM22.5 22.1153C22.5 22.2426 22.4475 22.3647 22.3539 22.4549C22.2604 22.545 22.1334 22.5958 22.001 22.596H2C1.86739 22.596 1.74021 22.5454 1.64645 22.4552C1.55268 22.3651 1.5 22.2428 1.5 22.1153V5.04796C1.50026 4.92062 1.55306 4.79858 1.6468 4.70862C1.74054 4.61867 1.86756 4.56815 2 4.56815H5.25V6.01046C5.24987 6.20172 5.32876 6.3852 5.46932 6.52053C5.60988 6.65586 5.80059 6.73196 5.9995 6.73209C6.19841 6.73222 6.38923 6.65636 6.52998 6.52121C6.67072 6.38606 6.74987 6.20268 6.75 6.01142V4.56815H11.25V6.01046C11.2499 6.20172 11.3288 6.3852 11.4693 6.52053C11.6099 6.65586 11.8006 6.73196 11.9995 6.73209C12.1984 6.73222 12.3892 6.65636 12.53 6.52121C12.6707 6.38606 12.7499 6.20268 12.75 6.01142V4.56815H17.25V6.01046C17.2499 6.20172 17.3288 6.3852 17.4693 6.52053C17.6099 6.65586 17.8006 6.73196 17.9995 6.73209C18.1984 6.73222 18.3892 6.65636 18.53 6.52121C18.6707 6.38606 18.7499 6.20268 18.75 6.01142V4.56815H22C22.1323 4.5684 22.259 4.61904 22.3526 4.70896C22.4461 4.79889 22.4987 4.92078 22.499 5.04796L22.5 22.1153Z" fill="#A0A0A0"/>
<path d="M5.25 9.61621H8.25V11.7797H5.25V9.61621ZM5.25 13.222H8.25V15.3854H5.25V13.222ZM5.25 16.8277H8.25V18.9912H5.25V16.8277ZM10.5 16.8277H13.5V18.9912H10.5V16.8277ZM10.5 13.222H13.5V15.3854H10.5V13.222ZM10.5 9.61621H13.5V11.7797H10.5V9.61621ZM15.75 16.8277H18.75V18.9912H15.75V16.8277ZM15.75 13.222H18.75V15.3854H15.75V13.222ZM15.75 9.61621H18.75V11.7797H15.75V9.61621Z" fill="#A0A0A0"/>
</g>
<defs>
<clipPath id="clip0_188_568">
<rect width="24" height="23.0769" fill="white" transform="translate(0 0.961914)"/>
</clipPath>
</defs>
</svg>
