<svg width="25" height="25" viewBox="0 0 25 25" fill="none" xmlns="http://www.w3.org/2000/svg">
<g clip-path="url(#clip0_183_190)">
<path d="M23.4097 12.0068L12.993 1.59012C12.8629 1.46078 12.6869 1.38818 12.5034 1.38818C12.3199 1.38818 12.1439 1.46078 12.0138 1.59012L1.59716 12.0068C1.48339 12.1396 1.42394 12.3105 1.43069 12.4853C1.43744 12.6601 1.5099 12.8259 1.63357 12.9495C1.75725 13.0732 1.92304 13.1457 2.09782 13.1524C2.27259 13.1592 2.44348 13.0997 2.57633 12.986L12.4999 3.06235L22.4235 12.9929C22.5564 13.1067 22.7273 13.1661 22.9021 13.1594C23.0768 13.1526 23.2426 13.0802 23.3663 12.9565C23.49 12.8328 23.5624 12.667 23.5692 12.4922C23.5759 12.3175 23.5165 12.1466 23.4027 12.0137L23.4097 12.0068Z" fill="white"/>
<path d="M19.4445 22.2224H15.9723V15.2779H9.02786V22.2224H5.55564V12.5002L4.16675 13.8891V22.2224C4.16675 22.5907 4.31308 22.944 4.57354 23.2045C4.83401 23.4649 5.18728 23.6113 5.55564 23.6113H10.4167V16.6668H14.5834V23.6113H19.4445C19.8129 23.6113 20.1662 23.4649 20.4266 23.2045C20.6871 22.944 20.8334 22.5907 20.8334 22.2224V13.7224L19.4445 12.3335V22.2224Z" fill="white"/>
</g>
<defs>
<clipPath id="clip0_183_190">
<rect width="25" height="25" fill="white"/>
</clipPath>
</defs>
</svg>
