<svg width="25" height="25" viewBox="0 0 25 25" fill="none" xmlns="http://www.w3.org/2000/svg">
<path d="M17.282 7.71796C16.8425 7.27857 16.2465 7.03174 15.625 7.03174C15.0035 7.03174 14.4075 7.27857 13.968 7.71796L13.6047 8.08046L14.7094 9.18514L15.0726 8.82264C15.22 8.68033 15.4173 8.60159 15.6222 8.60337C15.827 8.60515 16.023 8.68731 16.1678 8.83216C16.3127 8.97701 16.3948 9.17296 16.3966 9.3778C16.3984 9.58264 16.3196 9.77999 16.1773 9.92733L13.6047 12.5L14.7094 13.6047L17.282 11.032C17.7214 10.5925 17.9682 9.99647 17.9682 9.37499C17.9682 8.75351 17.7214 8.15747 17.282 7.71796ZM9.92734 16.1773C9.77999 16.3196 9.58265 16.3984 9.3778 16.3966C9.17296 16.3948 8.97702 16.3127 8.83217 16.1678C8.68732 16.023 8.60515 15.827 8.60337 15.6222C8.60159 15.4173 8.68034 15.22 8.82265 15.0726L11.3953 12.5L10.2906 11.3953L7.71796 13.968C7.49411 14.1842 7.31556 14.4428 7.19272 14.7287C7.06989 15.0147 7.00523 15.3222 7.00253 15.6334C6.99983 15.9446 7.05913 16.2532 7.17697 16.5413C7.29482 16.8293 7.46885 17.091 7.68891 17.3111C7.90897 17.5311 8.17066 17.7052 8.45869 17.823C8.74673 17.9409 9.05536 18.0002 9.36656 17.9974C9.67776 17.9947 9.98531 17.9301 10.2713 17.8073C10.5572 17.6844 10.8158 17.5059 11.032 17.282L11.3953 16.9195L10.2906 15.8148L9.92734 16.1773ZM11.032 7.71874C10.5882 7.30215 9.9997 7.07458 9.39107 7.08417C8.78243 7.09377 8.2014 7.33978 7.77093 7.77016C7.34046 8.20053 7.09431 8.7815 7.08457 9.39013C7.07483 9.99876 7.30226 10.5873 7.71874 11.0312L8.08124 11.3945L9.18593 10.2898L8.82343 9.92655C8.68112 9.7792 8.60237 9.58186 8.60415 9.37702C8.60593 9.17218 8.6881 8.97623 8.83295 8.83138C8.9778 8.68653 9.17374 8.60437 9.37858 8.60259C9.58343 8.60081 9.78077 8.67955 9.92812 8.82186L12.5 11.3953L13.6047 10.2906L11.032 7.71874Z" fill="white"/>
<path d="M17.282 13.9678L16.9195 13.6045L15.8148 14.7092L16.1773 15.0725C16.3196 15.2198 16.3984 15.4172 16.3966 15.622C16.3948 15.8268 16.3126 16.0228 16.1678 16.1676C16.0229 16.3125 15.827 16.3946 15.6221 16.3964C15.4173 16.3982 15.22 16.3195 15.0726 16.1771L12.5 13.6045L11.3953 14.7092L13.9679 17.2818C14.41 17.7088 15.002 17.945 15.6165 17.9397C16.231 17.9343 16.8189 17.6878 17.2534 17.2533C17.688 16.8187 17.9345 16.2309 17.9398 15.6164C17.9452 15.0018 17.7089 14.4098 17.282 13.9678Z" fill="white"/>
<path d="M12.5 24.219C12.3617 24.2191 12.2258 24.1824 12.1062 24.1127L2.73125 18.644C2.6133 18.5752 2.51545 18.4766 2.44746 18.3582C2.37947 18.2397 2.34371 18.1055 2.34375 17.969V7.03148C2.34371 6.89492 2.37947 6.76073 2.44746 6.64229C2.51545 6.52385 2.6133 6.42531 2.73125 6.35648L12.1062 0.887732C12.2258 0.817996 12.3616 0.78125 12.5 0.78125C12.6384 0.78125 12.7742 0.817996 12.8938 0.887732L22.2687 6.35648L21.4813 7.70648L12.5 2.46742L3.90625 7.47992V17.5205L12.5 22.5338L21.0938 17.5205V11.719H22.6562V17.969C22.6563 18.1055 22.6205 18.2397 22.5525 18.3582C22.4846 18.4766 22.3867 18.5752 22.2687 18.644L12.8938 24.1127C12.7742 24.1824 12.6383 24.2191 12.5 24.219Z" fill="white"/>
</svg>
