<svg width="25" height="25" viewBox="0 0 25 25" fill="none" xmlns="http://www.w3.org/2000/svg">
<g clip-path="url(#clip0_474_22)">
<path d="M14.062 7.42176C14.062 7.11096 14.1855 6.81289 14.4053 6.59312C14.625 6.37335 14.9231 6.24989 15.2339 6.24989H21.4839C21.7155 6.25009 21.9419 6.31893 22.1344 6.44771C22.327 6.57649 22.477 6.75944 22.5656 6.97344C22.6542 7.18745 22.6774 7.42291 22.6323 7.6501C22.5872 7.87729 22.4757 8.086 22.312 8.24989L19.3589 11.2061C19.8464 11.3249 20.3027 11.4874 20.7136 11.7046C21.873 12.3155 22.6574 13.3655 22.6574 14.8374C22.6574 15.8577 22.2964 16.7249 21.6745 17.3796C21.0714 18.0171 20.2777 18.3999 19.4745 18.5936C17.8964 18.9733 15.998 18.6921 14.5933 17.7702C14.3531 17.5917 14.1902 17.3282 14.1378 17.0335C14.0855 16.7389 14.1478 16.4353 14.3118 16.185C14.4759 15.9348 14.7294 15.7566 15.0204 15.6871C15.3115 15.6175 15.6182 15.6618 15.8777 15.8108C16.712 16.3577 17.9402 16.5515 18.9261 16.314C19.4042 16.1999 19.7542 15.9999 19.973 15.7686C20.1745 15.5561 20.3136 15.2686 20.3136 14.8374C20.3136 14.3561 20.1214 14.0421 19.6199 13.778C19.037 13.4702 18.0886 13.2811 16.798 13.2811C16.5664 13.2809 16.34 13.2121 16.1475 13.0833C15.9549 12.9545 15.8049 12.7716 15.7163 12.5576C15.6277 12.3436 15.6045 12.1081 15.6496 11.8809C15.6947 11.6537 15.8062 11.445 15.9699 11.2811L18.6574 8.59364H15.2339C14.9231 8.59364 14.625 8.47017 14.4053 8.2504C14.1855 8.03063 14.062 7.73256 14.062 7.42176ZM8.45736 16.4264C7.91048 16.3483 7.25423 16.603 6.92142 17.3202C6.85866 17.463 6.76804 17.5918 6.65486 17.699C6.54169 17.8063 6.40823 17.89 6.26233 17.945C6.11642 18.0001 5.96099 18.0254 5.80516 18.0197C5.64932 18.0139 5.4962 17.977 5.35478 17.9113C5.21335 17.8456 5.08647 17.7523 4.98156 17.6369C4.87665 17.5215 4.79583 17.3864 4.74383 17.2394C4.69183 17.0923 4.66969 16.9364 4.67872 16.7807C4.68775 16.625 4.72777 16.4727 4.79642 16.3327C5.59017 14.6233 7.27923 13.8874 8.79329 14.1061C10.3558 14.3327 11.7183 15.5827 11.7183 17.578C11.7183 19.8171 10.0183 21.003 8.92142 21.7671C8.44017 22.1046 8.02923 22.3874 7.71517 22.6624H10.937C11.2478 22.6624 11.5459 22.7859 11.7657 23.0056C11.9855 23.2254 12.1089 23.5235 12.1089 23.8343C12.1089 24.1451 11.9855 24.4431 11.7657 24.6629C11.5459 24.8827 11.2478 25.0061 10.937 25.0061H5.85892C5.54812 25.0061 5.25005 24.8827 5.03028 24.6629C4.81051 24.4431 4.68704 24.1451 4.68704 23.8343C4.68704 22.7561 5.15579 21.9421 5.73392 21.3186C6.27767 20.7374 6.98392 20.2624 7.53079 19.8811C8.78079 19.0061 9.37454 18.4686 9.37454 17.578C9.37454 16.839 8.95736 16.4999 8.45736 16.4264ZM8.75579 0.13895C8.94271 0.239026 9.09898 0.387938 9.20795 0.56982C9.31691 0.751702 9.37449 0.959739 9.37454 1.17176V8.62489H10.4855C10.7963 8.62489 11.0944 8.74835 11.3141 8.96812C11.5339 9.18789 11.6574 9.48596 11.6574 9.79676C11.6574 10.1076 11.5339 10.4056 11.3141 10.6254C11.0944 10.8452 10.7963 10.9686 10.4855 10.9686H5.87298C5.56218 10.9686 5.26411 10.8452 5.04434 10.6254C4.82457 10.4056 4.70111 10.1076 4.70111 9.79676C4.70111 9.48596 4.82457 9.18789 5.04434 8.96812C5.26411 8.74835 5.56218 8.62489 5.87298 8.62489H7.03079V3.35926L6.50892 3.7077C6.25031 3.87603 5.93574 3.93557 5.6335 3.87339C5.33126 3.81121 5.06574 3.63234 4.89458 3.37559C4.72342 3.11885 4.66042 2.80495 4.71928 2.50205C4.77813 2.19915 4.95407 1.93168 5.20892 1.7577L7.55267 0.1952C7.7292 0.0775723 7.93435 0.0100675 8.14623 -0.000114009C8.35812 -0.0102956 8.5688 0.0372279 8.75579 0.137388V0.13895Z" fill="#52AB98"/>
</g>
<defs>
<clipPath id="clip0_474_22">
<rect width="25" height="25" fill="white"/>
</clipPath>
</defs>
</svg>
