<svg width="50" height="50" viewBox="0 0 50 50" fill="none" xmlns="http://www.w3.org/2000/svg">
<path d="M33.3333 20.8333C33.3333 23.0435 32.4554 25.1631 30.8925 26.7259C29.3297 28.2887 27.2101 29.1667 25 29.1667C22.7899 29.1667 20.6702 28.2887 19.1074 26.7259C17.5446 25.1631 16.6667 23.0435 16.6667 20.8333C16.6667 18.6232 17.5446 16.5036 19.1074 14.9408C20.6702 13.378 22.7899 12.5 25 12.5C27.2101 12.5 29.3297 13.378 30.8925 14.9408C32.4554 16.5036 33.3333 18.6232 33.3333 20.8333Z" fill="black"/>
<path fill-rule="evenodd" clip-rule="evenodd" d="M24.15 45.8165C13.0385 45.3707 4.16666 36.2207 4.16666 24.9998C4.16666 13.4936 13.4937 4.1665 25 4.1665C36.5062 4.1665 45.8333 13.4936 45.8333 24.9998C45.8333 36.5061 36.5062 45.8332 25 45.8332C24.9049 45.8338 24.8097 45.8338 24.7146 45.8332C24.526 45.8332 24.3375 45.8269 24.15 45.8165ZM11.6312 38.1457C11.4755 37.6983 11.4225 37.2217 11.4761 36.7511C11.5298 36.2805 11.6887 35.828 11.9412 35.4272C12.1937 35.0264 12.5332 34.6877 12.9345 34.4361C13.3358 34.1844 13.7886 34.0265 14.2594 33.9738C22.3802 33.0748 27.6698 33.1561 35.751 33.9925C36.2224 34.0416 36.6763 34.1976 37.0783 34.4487C37.4803 34.6997 37.8196 35.0392 38.0706 35.4412C38.3215 35.8432 38.4774 36.2972 38.5263 36.7686C38.5753 37.24 38.5161 37.7163 38.3531 38.1613C41.8166 34.657 43.7562 29.9269 43.75 24.9998C43.75 14.6446 35.3552 6.24984 25 6.24984C14.6448 6.24984 6.24999 14.6446 6.24999 24.9998C6.24999 30.1207 8.30311 34.7623 11.6312 38.1457Z" fill="black"/>
</svg>
