<svg width="70" height="70" viewBox="0 0 70 70" fill="none" xmlns="http://www.w3.org/2000/svg">
<rect width="70" height="70" rx="35" fill="#C8D8E4"/>
<path d="M40.8333 38.3333H39.5167L39.05 37.8833C40.7398 35.9234 41.6685 33.4212 41.6667 30.8333C41.6667 28.6907 41.0313 26.5962 39.8409 24.8147C38.6505 23.0331 36.9586 21.6446 34.9791 20.8246C32.9995 20.0047 30.8213 19.7902 28.7199 20.2082C26.6184 20.6262 24.6881 21.6579 23.173 23.173C21.6579 24.6881 20.6262 26.6184 20.2082 28.7199C19.7902 30.8213 20.0047 32.9995 20.8246 34.9791C21.6446 36.9586 23.0331 38.6505 24.8147 39.8409C26.5962 41.0313 28.6907 41.6667 30.8333 41.6667C33.5167 41.6667 35.9833 40.6833 37.8833 39.05L38.3333 39.5167V40.8333L46.6667 49.15L49.15 46.6667L40.8333 38.3333ZM30.8333 38.3333C26.6833 38.3333 23.3333 34.9833 23.3333 30.8333C23.3333 26.6833 26.6833 23.3333 30.8333 23.3333C34.9833 23.3333 38.3333 26.6833 38.3333 30.8333C38.3333 34.9833 34.9833 38.3333 30.8333 38.3333Z" fill="white"/>
</svg>
