<svg width="25" height="25" viewBox="0 0 25 25" fill="none" xmlns="http://www.w3.org/2000/svg">
<g clip-path="url(#clip0_183_253)">
<path d="M13.8475 2.28143e-06C14.215 2.28143e-06 14.5437 0.228752 14.6675 0.571252L15.55 3.0175C15.8662 3.09625 16.1375 3.175 16.3675 3.2575C16.6187 3.3475 16.9425 3.48375 17.3425 3.67L19.3975 2.5825C19.5652 2.49364 19.7572 2.46156 19.9448 2.49108C20.1323 2.52061 20.3052 2.61014 20.4375 2.74625L22.245 4.615C22.485 4.86375 22.5525 5.2275 22.4175 5.545L21.4537 7.80375C21.6137 8.0975 21.7412 8.34875 21.8387 8.55875C21.9437 8.7875 22.0737 9.1025 22.2287 9.50875L24.475 10.4713C24.8125 10.615 25.0212 10.9525 24.9987 11.3138L24.8337 13.9075C24.8224 14.076 24.7619 14.2375 24.6597 14.3719C24.5575 14.5064 24.4181 14.6078 24.2587 14.6638L22.1312 15.42C22.07 15.7138 22.0062 15.965 21.9387 16.1775C21.8298 16.5057 21.7055 16.8285 21.5662 17.145L22.635 19.5075C22.7104 19.6735 22.7307 19.8593 22.6929 20.0376C22.6551 20.216 22.5612 20.3776 22.425 20.4988L20.3925 22.3138C20.2586 22.4328 20.0916 22.5081 19.9138 22.5295C19.7359 22.551 19.5558 22.5175 19.3975 22.4338L17.3025 21.3238C16.9747 21.4973 16.6366 21.6505 16.29 21.7825L15.375 22.125L14.5625 24.375C14.5023 24.5398 14.3937 24.6825 14.2509 24.7844C14.1081 24.8864 13.9379 24.9428 13.7625 24.9463L11.3875 25C11.2074 25.0047 11.0303 24.9535 10.8806 24.8535C10.7308 24.7534 10.6158 24.6094 10.5512 24.4413L9.59372 21.9075C9.26703 21.7959 8.94357 21.675 8.62372 21.545C8.36212 21.4318 8.10446 21.3096 7.85122 21.1788L5.47622 22.1938C5.31973 22.2605 5.14721 22.2803 4.97965 22.2508C4.81209 22.2213 4.65673 22.1437 4.53247 22.0275L2.77497 20.3788C2.64412 20.2565 2.55501 20.0963 2.52024 19.9206C2.48547 19.745 2.5068 19.5629 2.58122 19.4L3.60247 17.175C3.46665 16.9115 3.34073 16.6429 3.22497 16.37C3.08985 16.0359 2.96479 15.6978 2.84997 15.3563L0.612471 14.675C0.430597 14.62 0.271964 14.5065 0.161208 14.3522C0.0504525 14.1978 -0.00622741 14.0112 -2.89448e-05 13.8213L0.0874711 11.42C0.0936993 11.2633 0.142642 11.1113 0.229006 10.9805C0.31537 10.8496 0.435869 10.7448 0.577471 10.6775L2.92497 9.55C3.03372 9.15125 3.12872 8.84125 3.21247 8.615C3.3304 8.31281 3.46135 8.01586 3.60497 7.725L2.58747 5.575C2.51025 5.41173 2.4868 5.22818 2.5205 5.05073C2.55419 4.87329 2.64328 4.71111 2.77497 4.5875L4.52997 2.93C4.653 2.81397 4.80693 2.73596 4.97326 2.70535C5.13958 2.67475 5.3112 2.69286 5.46747 2.7575L7.83997 3.7375C8.10247 3.5625 8.33997 3.42125 8.55497 3.3075C8.81122 3.17125 9.15372 3.02875 9.58497 2.875L10.41 0.573752C10.471 0.405338 10.5825 0.259854 10.7292 0.157166C10.876 0.0544783 11.0509 -0.000407813 11.23 2.28143e-06H13.8475ZM13.235 1.72125H11.8437L11.0875 3.83875C11.043 3.96222 10.9711 4.07398 10.8771 4.16557C10.7831 4.25717 10.6695 4.32622 10.545 4.3675C9.99997 4.54875 9.60622 4.705 9.37622 4.82625C9.13247 4.955 8.82122 5.15125 8.45122 5.41375C8.33012 5.49874 8.18952 5.55178 8.04247 5.56795C7.89541 5.58412 7.74664 5.5629 7.60997 5.50625L5.32247 4.5625L4.43122 5.405L5.35997 7.3675C5.41557 7.48426 5.4438 7.61218 5.4425 7.74149C5.4412 7.87081 5.41041 7.99813 5.35247 8.11375C5.10247 8.615 4.93372 8.985 4.84872 9.2125C4.71837 9.59122 4.60575 9.9758 4.51122 10.365C4.47982 10.4868 4.42214 10.6003 4.34225 10.6975C4.26235 10.7946 4.16217 10.8731 4.04872 10.9275L1.81122 12.0013L1.76622 13.2263L3.79122 13.8413C4.05997 13.9225 4.27247 14.1288 4.36122 14.3938C4.56122 14.9938 4.72122 15.4363 4.83622 15.7138C4.9886 16.0659 5.15711 16.4109 5.34122 16.7475C5.40351 16.8633 5.43807 16.992 5.44219 17.1235C5.44631 17.2549 5.41988 17.3855 5.36497 17.505L4.42622 19.5525L5.31497 20.3875L7.54247 19.435C7.66246 19.3837 7.79235 19.3598 7.92273 19.365C8.05311 19.3702 8.18069 19.4044 8.29622 19.465C8.75247 19.705 9.09247 19.8713 9.30747 19.9625C9.52622 20.0538 9.94497 20.2063 10.5525 20.4138C10.6731 20.4549 10.7831 20.5222 10.8747 20.6108C10.9663 20.6994 11.0373 20.8071 11.0825 20.9263L11.9675 23.265L13.125 23.24L13.8712 21.1725C13.9139 21.0545 13.9817 20.9472 14.07 20.8581C14.1583 20.769 14.2649 20.7001 14.3825 20.6563L15.6787 20.1713C16.0062 20.05 16.4037 19.8588 16.8675 19.5963C16.9958 19.5241 17.1402 19.4854 17.2874 19.4837C17.4347 19.4819 17.5799 19.5172 17.71 19.5863L19.6812 20.63L20.79 19.6413L19.82 17.5C19.7702 17.3901 19.7443 17.2708 19.7441 17.1501C19.7438 17.0295 19.7693 16.9101 19.8187 16.8C20.0462 16.2913 20.2 15.9075 20.2775 15.6625C20.3537 15.4225 20.4325 15.0763 20.5087 14.6313C20.5349 14.4801 20.601 14.3387 20.7001 14.2216C20.7992 14.1044 20.9277 14.0159 21.0725 13.965L23.1325 13.2338L23.2225 11.8088L21.1975 10.9413C21.0897 10.8954 20.9923 10.828 20.9113 10.7434C20.8303 10.6587 20.7673 10.5585 20.7262 10.4488C20.5818 10.0503 20.4242 9.65675 20.2537 9.26875C20.0923 8.93091 19.9171 8.59981 19.7287 8.27625C19.6634 8.16194 19.6255 8.03406 19.6179 7.90264C19.6103 7.77122 19.6333 7.63982 19.685 7.51875L20.5912 5.39375L19.6362 4.40625L17.7762 5.39125C17.6548 5.45565 17.5199 5.49067 17.3825 5.4935C17.2451 5.49632 17.1089 5.46686 16.985 5.4075C16.5902 5.21121 16.1864 5.03351 15.775 4.875C15.4242 4.75719 15.0664 4.66117 14.7037 4.5875C14.5598 4.55699 14.426 4.49039 14.315 4.39396C14.2039 4.29753 14.1191 4.17444 14.0687 4.03625L13.2337 1.72L13.235 1.72125ZM12.53 7.05125C15.5737 7.05125 18.0425 9.4925 18.0425 12.5025C18.0425 15.5125 15.5737 17.9525 12.53 17.9525C9.48497 17.9525 7.01747 15.5125 7.01747 12.5025C7.01747 9.4925 9.48497 7.0525 12.53 7.0525V7.05125ZM12.53 8.77375C10.4462 8.77375 8.75747 10.4425 8.75747 12.5025C8.75747 14.5625 10.4462 16.2325 12.53 16.2325C14.6125 16.2325 16.3012 14.5625 16.3012 12.5025C16.3012 10.4425 14.6137 8.77375 12.53 8.77375Z" fill="white"/>
</g>
<defs>
<clipPath id="clip0_183_253">
<rect width="25" height="25" fill="white"/>
</clipPath>
</defs>
</svg>
