<svg width="25" height="25" viewBox="0 0 25 25" fill="none" xmlns="http://www.w3.org/2000/svg">
<path d="M9.37508 12.5002C9.37508 13.1908 9.10071 13.8532 8.61234 14.3416C8.12396 14.83 7.46158 15.1043 6.77091 15.1043C6.08025 15.1043 5.41787 14.83 4.92949 14.3416C4.44111 13.8532 4.16675 13.1908 4.16675 12.5002C4.16675 11.8095 4.44111 11.1471 4.92949 10.6587C5.41787 10.1704 6.08025 9.896 6.77091 9.896C7.46158 9.896 8.12396 10.1704 8.61234 10.6587C9.10071 11.1471 9.37508 11.8095 9.37508 12.5002Z" stroke="white" stroke-width="1.5"/>
<path d="M14.5833 6.771L9.375 10.4168M14.5833 18.2293L9.375 14.5835" stroke="white" stroke-width="1.5" stroke-linecap="round"/>
<path d="M19.7918 19.2708C19.7918 19.9615 19.5175 20.6239 19.0291 21.1123C18.5407 21.6006 17.8783 21.875 17.1877 21.875C16.497 21.875 15.8346 21.6006 15.3462 21.1123C14.8579 20.6239 14.5835 19.9615 14.5835 19.2708C14.5835 18.5802 14.8579 17.9178 15.3462 17.4294C15.8346 16.941 16.497 16.6667 17.1877 16.6667C17.8783 16.6667 18.5407 16.941 19.0291 17.4294C19.5175 17.9178 19.7918 18.5802 19.7918 19.2708ZM19.7918 5.72917C19.7918 6.41983 19.5175 7.08221 19.0291 7.57059C18.5407 8.05897 17.8783 8.33333 17.1877 8.33333C16.497 8.33333 15.8346 8.05897 15.3462 7.57059C14.8579 7.08221 14.5835 6.41983 14.5835 5.72917C14.5835 5.0385 14.8579 4.37612 15.3462 3.88774C15.8346 3.39937 16.497 3.125 17.1877 3.125C17.8783 3.125 18.5407 3.39937 19.0291 3.88774C19.5175 4.37612 19.7918 5.0385 19.7918 5.72917Z" stroke="white" stroke-width="1.5"/>
</svg>
