<svg width="25" height="25" viewBox="0 0 25 25" fill="none" xmlns="http://www.w3.org/2000/svg">
<path d="M11.8959 18.4896V21.2083C11.8946 21.5919 11.7416 21.9594 11.4703 22.2306C11.1991 22.5019 10.8316 22.6549 10.448 22.6562C10.0639 22.6549 9.6959 22.5021 9.42383 22.231C9.15176 21.9599 8.99762 21.5924 8.99488 21.2083V18.4896H16.0053V21.2083C16.0026 21.5924 15.8484 21.9599 15.5763 22.231C15.3043 22.5021 14.9362 22.6549 14.5522 22.6562C14.1686 22.6549 13.8011 22.5019 13.5299 22.2306C13.2586 21.9594 13.1056 21.5919 13.1043 21.2083V18.4896M8.90113 2.34375L9.90113 4.20312M16.099 2.34375L15.047 4.17708M9.63551 14.9245L15.3647 9.19531M9.63551 9.19531L15.3647 14.9245M5.55217 8.76562C5.74232 8.76494 5.93073 8.80171 6.10667 8.87384C6.2826 8.94598 6.4426 9.05206 6.57753 9.18602C6.71247 9.31999 6.8197 9.47923 6.89309 9.65463C6.96649 9.83004 7.00462 10.0182 7.0053 10.2083V15.349C6.98314 15.7186 6.82067 16.0659 6.55107 16.3198C6.28148 16.5737 5.92512 16.7151 5.55478 16.7151C5.18444 16.7151 4.82807 16.5737 4.55848 16.3198C4.28889 16.0659 4.12642 15.7186 4.10426 15.349V10.2135C4.10357 10.0241 4.14021 9.83634 4.21208 9.66104C4.28395 9.48574 4.38965 9.32632 4.52313 9.19186C4.65662 9.05741 4.81528 8.95057 4.99005 8.87744C5.16483 8.8043 5.3523 8.76631 5.54176 8.76562H5.55217ZM19.448 8.76562C19.6375 8.76494 19.8252 8.80158 20.0005 8.87345C20.1758 8.94532 20.3352 9.05101 20.4697 9.1845C20.6041 9.31798 20.711 9.47664 20.7841 9.65142C20.8572 9.8262 20.8952 10.0137 20.8959 10.2031V15.349C20.8738 15.7186 20.7113 16.0659 20.4417 16.3198C20.1721 16.5737 19.8157 16.7151 19.4454 16.7151C19.0751 16.7151 18.7187 16.5737 18.4491 16.3198C18.1795 16.0659 18.017 15.7186 17.9949 15.349V10.2135C17.9949 10.0234 18.0323 9.83512 18.1051 9.65945C18.1779 9.48378 18.2845 9.32416 18.419 9.18971C18.5534 9.05526 18.713 8.94861 18.8887 8.87584C19.0644 8.80308 19.2527 8.76562 19.4428 8.76562H19.448ZM12.5001 3.55208C11.0428 3.55208 9.64516 4.131 8.61469 5.16147C7.58421 6.19194 7.0053 7.58957 7.0053 9.04688V17.4427C7.0053 17.719 7.11505 17.9839 7.3104 18.1793C7.50575 18.3746 7.7707 18.4844 8.04697 18.4844H16.9532C17.2295 18.4844 17.4944 18.3746 17.6898 18.1793C17.8851 17.9839 17.9949 17.719 17.9949 17.4427V9.04688C17.9949 7.58957 17.416 6.19194 16.3855 5.16147C15.355 4.131 13.9574 3.55208 12.5001 3.55208Z" stroke="white" stroke-linecap="round" stroke-linejoin="round"/>
</svg>
