<svg width="65" height="65" viewBox="0 0 65 65" fill="none" xmlns="http://www.w3.org/2000/svg">
<path d="M6.14453 52H4.97656C3.50391 52 2.33594 50.832 2.33594 49.3594C2.33594 47.8359 3.55469 46.6172 5.07812 46.6172H6.14453V44.4844H4.72266C2.13281 44.4844 0 46.6172 0 49.207C0 52.1016 2.33594 54.4375 5.23047 54.4375H6.14453V52ZM58.8555 52H57.6875C56.2148 52 55.0469 50.832 55.0469 49.3594C55.0469 47.8359 56.2656 46.6172 57.7891 46.6172H58.8555V44.4844H57.3828C54.793 44.4844 52.6602 46.6172 52.6602 49.207C52.6602 52.1016 54.9961 54.4375 57.8906 54.4375H58.8047V52H58.8555ZM11.2227 44.4844C8.9375 44.4844 7.10938 46.7188 7.10938 49.4609C7.10938 52.2031 8.9375 54.4375 11.2227 54.4375C13.5078 54.4375 15.3359 52.2031 15.3359 49.4609C15.3359 46.7188 13.5078 44.4844 11.2227 44.4844ZM11.2227 52.5586C10.207 52.5586 9.44531 51.1875 9.44531 49.5117C9.44531 47.8359 10.2578 46.4648 11.2227 46.4648C12.2383 46.4648 13 47.8359 13 49.5117C13 51.1875 12.1875 52.5586 11.2227 52.5586ZM15.3359 54.4375L16.9102 44.4844H20.2109L21.1758 49.4609L22.4453 44.4844H25.4922L26.9648 54.4375H24.4258L23.6133 47.6836L22.2422 54.4375H20.5156L18.6367 47.7852L17.7734 54.4375H15.3359ZM27.5234 54.4375L29.0977 44.4844H32.3984L33.3125 49.4609L34.582 44.4844H37.6797L39.1523 54.4375H36.6133L35.75 47.6836L34.3789 54.4375H32.7031L30.7734 47.7852L29.9609 54.4375H27.5234ZM39.5586 54.4375V44.4844H44.7383V46.4141H42.1484V48.5469H44.4336V50.375H41.8438V52.3047H44.7383V54.4375H39.5586ZM59.8203 54.4375V44.4844H65V46.4141H62.4102V48.5469H64.6953V50.375H62.1055V52.3047H65V54.4375H59.8203Z" fill="black"/>
<path d="M50.7812 49.8164C51.5937 49.8164 52.3047 49.1563 52.3047 48.293V47.3789C52.3047 45.7539 50.9844 44.4844 49.4102 44.4844H45.6523V54.4375H47.9883V49.7656L50.5273 54.4375H53.1172L50.7812 49.8164ZM48.8008 48.9531H47.9375V46.5156H48.9023C49.5625 46.5156 50.0703 47.0234 50.0703 47.6836C50.0195 48.3945 49.4609 48.9531 48.8008 48.9531Z" fill="black"/>
<path d="M52.8125 36.3086H12.3398C9.08984 36.3086 6.39844 33.668 6.39844 30.3672V16.4531C6.39844 13.2031 9.03906 10.5117 12.3398 10.5117H52.8125C56.0625 10.5117 58.7539 13.1523 58.7539 16.4531V30.3672C58.7539 33.668 56.0625 36.3086 52.8125 36.3086Z" fill="#7F54B3"/>
<path d="M12.0859 31.2812C12.0859 31.2812 13.2539 36.0547 15.5898 32.8554C17.9258 29.6562 20.1602 24.6289 20.1602 24.6289C20.1602 24.6289 20.3125 23.3593 20.9727 26.1523C21.6328 28.9453 24.4766 32.6523 24.4766 32.6523C24.4766 32.6523 27.0664 35.8515 28.1328 32.5C27.7266 28.0312 29.3008 19.9062 30.875 15.9961C31.5352 12.5429 27.8789 13.5078 27.5742 14.3711C27.2695 15.2343 24.9336 20.3125 24.7812 25.7461C24.7812 25.7461 22.8516 20.5664 22.6992 18.6367C22.5469 16.7578 20.5664 16.25 19.3984 18.0781C18.2305 19.9062 14.7266 26.9648 14.7266 26.9648L12.4922 15.4375C12.4922 15.4375 10.2578 12.4922 8.9375 16.0976C8.9375 16.0976 11.2734 30.2656 12.0859 31.2812ZM41.9961 18.6367C38.4922 12.8476 33.3633 17.2148 33.3633 17.2148C33.3633 17.2148 29.4531 21.7343 31.2305 27.8789C34.0742 33.9726 37.9844 31.2304 39.0508 30.7734C40.1172 30.2656 44.7891 24.9843 41.9961 18.6367ZM39.3555 23.7148C39.3555 26.1523 37.375 28.3867 35.6992 27.8789C34.7852 27.3711 34.2266 25.8984 34.2266 23.5117C35.0391 19.5508 36.8672 19.0429 37.7813 19.1445C39.5078 20.0586 39.4063 22.1406 39.3555 23.7148ZM54.9961 18.6367C51.4922 12.8476 46.3633 17.2148 46.3633 17.2148C46.3633 17.2148 42.4531 21.7343 44.2305 27.8789C47.0742 33.9726 50.9844 31.2304 52.0508 30.7734C53.168 30.2656 57.8398 24.9843 54.9961 18.6367ZM52.3555 23.7148C52.3555 26.1523 50.375 28.3867 48.6992 27.8789C47.7852 27.3711 47.2266 25.8984 47.2266 23.5117C48.0391 19.5508 49.8672 19.0429 50.7813 19.1445C52.5078 20.0586 52.457 22.1406 52.3555 23.7148Z" fill="white"/>
<path d="M31.4844 36.3086L40.5742 41.6406L38.6953 36.3086L33.4648 34.8359L31.4844 36.3086Z" fill="#7F54B3"/>
</svg>
