<svg width="24" height="24" viewBox="0 0 24 24" fill="none" xmlns="http://www.w3.org/2000/svg">
<path d="M12.0003 18.883C10.0172 18.9086 8.06528 18.3877 6.35865 17.3773C4.65202 16.3669 3.25657 14.9061 2.32532 13.155C2.14731 12.796 2.05469 12.4007 2.05469 12C2.05469 11.5993 2.14731 11.204 2.32532 10.845C3.25657 9.09392 4.65202 7.63309 6.35865 6.62269C8.06528 5.6123 10.0172 5.09136 12.0003 5.11699C13.9835 5.09136 15.9354 5.6123 17.642 6.62269C19.3486 7.63309 20.7441 9.09392 21.6753 10.845C21.8533 11.204 21.9459 11.5993 21.9459 12C21.9459 12.4007 21.8533 12.796 21.6753 13.155C20.7441 14.9061 19.3486 16.3669 17.642 17.3773C15.9354 18.3877 13.9835 18.9086 12.0003 18.883ZM12.0003 6.11699C10.2026 6.09005 8.43219 6.55882 6.88337 7.47188C5.33455 8.38495 4.06718 9.70701 3.22032 11.293C3.11078 11.5128 3.05377 11.7549 3.05377 12.0005C3.05377 12.246 3.11078 12.4882 3.22032 12.708C4.0674 14.2937 5.33485 15.6155 6.88364 16.5284C8.43243 17.4412 10.2027 17.9099 12.0003 17.883C13.798 17.9099 15.5684 17.4412 17.1173 16.5281C18.6661 15.615 19.9335 14.293 20.7803 12.707C20.8898 12.4874 20.9468 12.2454 20.9468 12C20.9468 11.7546 20.8898 11.5126 20.7803 11.293C19.9335 9.70701 18.6661 8.38495 17.1173 7.47188C15.5684 6.55882 13.798 6.09005 12.0003 6.11699Z" fill="#52AB98"/>
<path d="M12.0002 16.049C11.1994 16.049 10.4165 15.8115 9.75067 15.3666C9.08482 14.9217 8.56584 14.2893 8.25939 13.5495C7.95293 12.8096 7.87274 11.9955 8.02897 11.2101C8.18521 10.4246 8.57084 9.70318 9.1371 9.13692C9.70336 8.57065 10.4248 8.18502 11.2103 8.02879C11.9957 7.87256 12.8098 7.95274 13.5497 8.2592C14.2895 8.56566 14.9219 9.08463 15.3668 9.75049C15.8117 10.4163 16.0492 11.1992 16.0492 12C16.0479 13.0734 15.6208 14.1026 14.8618 14.8616C14.1027 15.6207 13.0736 16.0477 12.0002 16.049ZM12.0002 8.94899C11.3972 8.94899 10.8078 9.12776 10.3064 9.4627C9.80509 9.79764 9.41429 10.2737 9.18346 10.8307C8.95263 11.3877 8.89213 12.0007 9.00961 12.5921C9.1271 13.1835 9.41729 13.7268 9.8435 14.1533C10.2697 14.5797 10.8128 14.8703 11.4041 14.9882C11.9954 15.106 12.6084 15.0459 13.1656 14.8155C13.7228 14.585 14.1991 14.1945 14.5344 13.6934C14.8696 13.1922 15.0488 12.6029 15.0492 12C15.0484 11.1916 14.7269 10.4165 14.1553 9.8449C13.5836 9.27327 12.8086 8.95179 12.0002 8.95099V8.94899Z" fill="#52AB98"/>
<path d="M11.9997 14.028C13.1197 14.028 14.0277 13.12 14.0277 12C14.0277 10.88 13.1197 9.97198 11.9997 9.97198C10.8796 9.97198 9.97168 10.88 9.97168 12C9.97168 13.12 10.8796 14.028 11.9997 14.028Z" fill="#52AB98"/>
</svg>
